<svg height="26" viewBox="0 0 20 26" width="20" xmlns="http://www.w3.org/2000/svg"><g style="stroke:#fff;stroke-width:1.6;fill:none;fill-rule:evenodd;stroke-linecap:round;stroke-linejoin:round" transform="translate(1 1)"><path d="m9.15579119 7.00063749c2.52494141 0 5.04988291-.00214268 7.57482441.00142846.5514725.00071423 1.2529625.1469331 1.2691616.94115507.0147905.77065244-.7099417.7470829-1.2445109.81636306-1.2726832.16498675-2.5474793.31426049-3.8243883.43925046-1.0437833.10213466-1.4332652.65209052-1.4903141 1.71271966-.1936845 3.5675708.7148718 6.9694407 1.3931197 10.4091646.1007159.5092448.2183352 1.016347.323277 1.5255918.1119849.5399567-.0408498.9863495-.5909138 1.1227671-.5493596.1364176-.8860185-.1921275-1.0402617-.7177996-.5113271-1.7448599-1.0212455-3.4904341-1.53116399-5.2352941-.07254364-.2492657-.13874852-.5006741-.21481371-.7492256-.12466238-.4078244-.17396388-.8999277-.73881829-.9256399-.64796266-.0292834-.71416754.5242436-.84446438.966351-.51696152 1.7427172-1.00082059 3.4961479-1.5276424 5.2352941-.19931895.6585186-.20706633 1.6884359-1.26775304 1.3934596-.95081477-.2642645-.52118735-1.1063398-.40427235-1.7648584.63458082-3.5754273 1.71287521-7.080146 1.53961562-10.782706-.08592548-1.83271007-.1950931-2.04126476-2.03685653-2.26553247-1.06139102-.12927534-2.12630356-.23069577-3.18839888-.35854265-.58246209-.07070862-1.3621302-.03285451-1.30860285-.87850093.0485972-.7649386.77262504-.8790172 1.32198469-.8790172 1.74010842-.00095231 4.35050582-.00309499 7.8311922-.00642806z"/><path d="m7.00712018 1.80482665c.09472808-1.09615333 1.05943887-1.89615032 2.16813633-1.79643186 1.09278319.09821894 1.92487459 1.0886557 1.81499009 2.16081662-.1098846 1.06766234-1.1450731 1.93213895-2.18253505 1.82117404-1.07383753-.11396396-1.89304598-1.1088993-1.80059137-2.1855588z" fill="#2cda9d"/></g></svg>