<svg height="20" viewBox="0 0 20 20" width="20" xmlns="http://www.w3.org/2000/svg"><path d="m92.0425 17.0426389h-2.9643056v-4.6415278c0-1.1073611-.0204166-2.53097221-1.5415277-2.53097221-1.54375 0-1.7801389 1.20583331-1.7801389 2.45083331v4.7216667h-2.9643056v-9.54458334h2.8456945v1.30402777h.0394444c.3958333-.75027777 1.3636111-1.54152777 2.8066667-1.54152777 3.0038889 0 3.5584722 1.97680555 3.5584722 4.54666664zm-12.5934722-10.84930557c-.9505556 0-1.7201389-.77097222-1.7201389-1.72041666 0-.94875.7695833-1.71944445 1.7201389-1.71944445.9486111 0 1.7191666.77069445 1.7191666 1.71944445 0 .94944444-.7705555 1.72041666-1.7191666 1.72041666zm-1.48375 10.84930557h2.9663889v-9.54458334h-2.9663889zm15.5544444-17.0426389h-17.0436111c-.8144444 0-1.4761111.64555556-1.4761111 1.44152778v17.11527782c0 .7966666.6616667 1.4431944 1.4761111 1.4431944h17.0436111c.8158334 0 1.4805556-.6465278 1.4805556-1.4431944v-17.11527782c0-.79597222-.6647222-1.44152778-1.4805556-1.44152778z" fill="#0077b5" fill-rule="evenodd" transform="translate(-75)"/></svg>