<svg height="26" viewBox="0 0 18 26" width="18" xmlns="http://www.w3.org/2000/svg"><g fill="none" fill-rule="evenodd" transform="translate(1 1)"><path d="m15.9291789 8.10685714c0-4.47771428-3.5654736-8.10685714-7.96463153-8.10685714-4.3991579 0-7.96463158 3.62914286-7.96463158 8.10685714 0 1.28057143.29978947 2.48742856.82021053 3.56485716h-.00842106l7.15284211 12.3282857 7.13852633-12.2974286h-.0084211c.5288421-1.0842857.8345263-2.30228569.8345263-3.59571426z" stroke="#fff" stroke-linecap="round" stroke-linejoin="round" stroke-width="1.7"/><path d="m11.5410526 7.90345714c0 2.01085715-1.60084207 3.64028576-3.57642102 3.64028576s-3.57642105-1.62942861-3.57642105-3.64028576c0-2.01085714 1.6008421-3.64028571 3.57642105-3.64028571s3.57642102 1.62942857 3.57642102 3.64028571" fill="#2cda9d"/><path d="m11.5410526 7.90345714c0 2.01085715-1.60084207 3.64028576-3.57642102 3.64028576s-3.57642105-1.62942861-3.57642105-3.64028576c0-2.01085714 1.6008421-3.64028571 3.57642105-3.64028571s3.57642102 1.62942857 3.57642102 3.64028571z" stroke="#fff" stroke-linecap="round" stroke-linejoin="round" stroke-width="1.7"/></g></svg>