<svg height="20" viewBox="0 0 25 20" width="25" xmlns="http://www.w3.org/2000/svg"><path d="m7.8437633 20c9.4401873 0 14.6019583-7.6963351 14.6019583-14.36649215 0-.21989528 0-.43979057-.0106428-.64921466 1.0004257-.71204188 1.8731375-1.60209424 2.5649212-2.61780104-.9152831.39790576-1.905066.67015706-2.948063.79581151 1.0642827-.62827225 1.8731375-1.61256544 2.2562793-2.79581151-.9897829.57591623-2.0859941.99476439-3.256705 1.22513089-.9365688-.9842932-2.2669221-1.59162304-3.746275-1.59162304-2.8309919 0-5.1298425 2.2617801-5.1298425 5.04712042 0 .39790576.0425713.78534031.1383567 1.15183246-4.26777349-.20942408-8.04597698-2.21989529-10.57896974-5.27748691-.4363559.7434555-.69178374 1.61256544-.69178374 2.53403141 0 1.7486911.90464027 3.29842932 2.28820775 4.19895288-.84078331-.02094241-1.62835249-.2513089-2.32013623-.62827225v.06282723c0 2.45026178 1.76670924 4.48167536 4.11877395 4.95287956-.42571307.1151833-.88335462.1780105-1.351639.1780105-.32992763 0-.64921243-.0314136-.96849723-.0942408.64921243 2.0104712 2.54363559 3.4659685 4.78927203 3.5078534-1.75606641 1.3507853-3.96977437 2.157068-6.37505322 2.157068-.41507024 0-.81949765-.0209424-1.22392507-.0732984 2.24563644 1.4450262 4.94891443 2.2827225 7.8437633 2.2827225z" fill="#1da1f2" fill-rule="evenodd" transform=""/></svg>