<svg height="26" viewBox="0 0 26 26" width="26" xmlns="http://www.w3.org/2000/svg"><g fill="none" fill-rule="evenodd" transform="translate(1)"><path d="m17.7761207 6.64689655c-.975-.975-.975-2.55517241 0-3.53017241l-2.2543104-2.25431035-15.52155168 15.52068961 2.25431035 2.2551725c.975-.975 2.55517241-.975 3.53017241 0s.975 2.5551724 0 3.5293103l2.25431034 2.2551724 15.52155168-15.5215517-2.2543103-2.25431035c-.975.97413793-2.5551724.97413793-3.5301724 0" fill="#2d2f7f"/><path d="m18.7974134 14.525 4.7612069-4.7612069-2.2543103-2.25517241c-.975.975-2.5551725.975-3.5301725 0-.9741379-.975-.9741379-2.55517241 0-3.53017241l-2.2543103-2.25431035-4.7612069 4.7612069" fill="#2cda9d"/><path d="m17.7761207 6.64689655c-.975-.975-.975-2.55517241 0-3.53017241l-2.2543104-2.25431035-15.52155168 15.52068961 2.25431035 2.2551725c.975-.975 2.55517241-.975 3.53017241 0s.975 2.5551724 0 3.5293103l2.25431034 2.2551724 15.52155168-15.5215517-2.2543103-2.25431035c-.975.97413793-2.5551724.97413793-3.5301724 0z" stroke="#fff" stroke-linecap="round" stroke-linejoin="round" stroke-width="1.71"/><path d="m8.45413793 13.3784483 4.76120687-4.76120692-2.2543103-2.25517241c-.97500002.975-2.55517243.975-3.53017243 0-.97413793-.975-.97413793-2.55517242 0-3.53017242l-2.25431035-2.25431034-4.76120689 4.76120689" stroke="#fff" stroke-linecap="round" stroke-linejoin="round" stroke-width="1.71" transform="translate(10.344828 .284483)"/><path d="m10.76 5.62353448 8.0387931 8.03965522" fill="#e2e2e2"/><g stroke="#fff" stroke-linecap="round" stroke-linejoin="round" stroke-width="1.71"><path d="m10.76 5.62353448.3051724.30517242"/><path d="m13.0902586 7.95465517 4.3913793 4.39051723" stroke-dasharray=".94734 2.84202"/><path d="m18.4933621 13.3581897.3051724.3051724"/></g></g></svg>