<svg height="20" viewBox="0 0 20 20" width="20" xmlns="http://www.w3.org/2000/svg"><path d="m58.8965517 0h-17.7931034c-.6094177 0-1.1034483.49403062-1.1034483 1.10344828v17.79310342c0 .6094177.4940306 1.1034483 1.1034483 1.1034483h9.5862069v-7.7344828h-2.6034483v-3.02758617h2.6034483v-2.2275862c0-2.58275862 1.5793103-3.98965517 3.8827586-3.98965517.7762323-.00169282 1.5520165.03744169 2.3241379.11724137v2.7h-1.5862069c-1.2551724 0-1.5.59310345-1.5 1.46896552v1.92758621h3l-.3896551 3.02758624h-2.6275863v7.737931h5.1034483c.6094177 0 1.1034483-.4940306 1.1034483-1.1034483v-17.79310342c0-.60941766-.4940306-1.10344828-1.1034483-1.10344828z" fill="#4267b2" transform="translate(-40)"/></svg>