<svg width="22px" height="18px" viewBox="0 0 22 18" version="1.1" xmlns="http://www.w3.org/2000/svg" xmlns:xlink="http://www.w3.org/1999/xlink">
    <g id="Events-listing" stroke="none" stroke-width="1" fill="none" fill-rule="evenodd" stroke-linecap="round" stroke-linejoin="round">
        <g id="Events-listing-(mobile)" transform="translate(-124.000000, -367.000000)" stroke="#2D2F7F" stroke-width="2">
            <g id="Filters" transform="translate(0.000000, 321.000000)">
                <g id="Button" transform="translate(20.000000, 30.000000)">
                    <g id="Group-2" transform="translate(105.000000, 17.000000)">
                        <g id="Menu-icon" transform="translate(0.000000, 1.600000)">
                            <path d="M20,0.8 L0,0.8" id="Line"></path>
                            <path d="M20,6.4 L0,6.4" id="Line-Copy"></path>
                            <path d="M20,12 L0,12" id="Line-Copy"></path>
                        </g>
                        <path d="M6.73333327,7.95311997 C6.73333327,9.29614423 5.59898358,10.3851199 4.19999997,10.3851199 C2.80101636,10.3851199 1.66666667,9.29614423 1.66666667,7.95311997 C1.66666667,6.61009571 2.80101636,5.52112 4.19999997,5.52112 C5.59898358,5.52112 6.73333327,6.61009571 6.73333327,7.95311997 Z" id="Stroke-413" fill="#2CDA9D"></path>
                        <path d="M16.1703335,2.43634389 C16.1703335,3.78138725 15.0342784,4.87200012 13.6331915,4.87200012 C12.2313884,4.87200012 11.0953333,3.78138725 11.0953333,2.43634389 C11.0953333,1.09061287 12.2313884,0 13.6331915,0 C15.0342784,0 16.1703335,1.09061287 16.1703335,2.43634389 Z" id="Stroke-415" fill="#2CDA9D"></path>
                        <path d="M16.6372499,13.2664 C16.6372499,14.6101109 15.5029002,15.6990866 14.1039166,15.6990866 C12.704933,15.6990866 11.5705833,14.6101109 11.5705833,13.2664 C11.5705833,11.9233757 12.704933,10.8344 14.1039166,10.8344 C15.5029002,10.8344 16.6372499,11.9233757 16.6372499,13.2664 Z" id="Stroke-417" fill="#2CDA9D"></path>
                    </g>
                </g>
            </g>
        </g>
    </g>
</svg>