<svg height="26" viewBox="0 0 23 26" width="23" xmlns="http://www.w3.org/2000/svg"><g fill="none" fill-rule="evenodd" transform="translate(1 1)"><g stroke="#fff" stroke-linecap="round" stroke-linejoin="round" stroke-width="1.564"><path d="m0 18.3824h20.9548889v-16.1208h-20.9548889z"/><path d="m5.4194 0v4.0256"/><path d="m15.5358 0v4.0256"/></g><path d="m16.2217729 17.9944c0 3.3112-2.6094444 5.9952-5.8286666 5.9952-3.21922224 0-5.82788891-2.684-5.82788891-5.9952 0-3.3104 2.60866667-5.9944 5.82788891-5.9944 3.2192222 0 5.8286666 2.684 5.8286666 5.9944" fill="#fff"/><path d="m17.1348164 17.9944c0 3.3112-2.6094444 5.9952-5.8286666 5.9952-3.21922226 0-5.82788893-2.684-5.82788893-5.9952 0-3.3104 2.60866667-5.9944 5.82788893-5.9944 3.2192222 0 5.8286666 2.684 5.8286666 5.9944" fill="#2cda9d"/><path d="m16.3060333 17.78672c0 3.3112-2.6094444 5.9952-5.8286666 5.9952-3.21922226 0-5.82788892-2.684-5.82788892-5.9952 0-3.3104 2.60866666-5.9944 5.82788892-5.9944 3.2192222 0 5.8286666 2.684 5.8286666 5.9944z" stroke="#fff" stroke-linecap="round" stroke-linejoin="round" stroke-width="1.564"/><path d="m10.4772111 14.4836v3.68h2.2446667" stroke="#fff" stroke-linecap="round" stroke-linejoin="round" stroke-width="1.564"/><g transform="translate(0 6.9816)"><path d="m0 .51608h20.9548889" fill="#a3a3a3"/><path d="m0 .51608h20.9548889" stroke="#fff" stroke-linecap="round" stroke-linejoin="round" stroke-width="1.564"/></g></g></svg>