<svg height="25" viewBox="0 0 23 25" width="23" xmlns="http://www.w3.org/2000/svg"><g fill="none" fill-rule="evenodd" transform="translate(1 1)"><path d="m15.7712 10.2135c0 3.009-2.439 5.448-5.448 5.448s-5.448-2.439-5.448-5.448 2.439-5.448 5.448-5.448 5.448 2.439 5.448 5.448" fill="#2cda9d"/><g stroke="#fff" stroke-linecap="round" stroke-linejoin="round" stroke-width="1.8"><path d="m15.7712 10.2135c0 3.009-2.439 5.448-5.448 5.448s-5.448-2.439-5.448-5.448 2.439-5.448 5.448-5.448 5.448 2.439 5.448 5.448z"/><path d="m.9851.985 5.185 5.185"/><path d="m-.0003 4.0548.059-3.765 3.997-.29"/><path d="m2.0681 5.7486 3.681-3.681"/><path d="m19.4441.985-5.185 5.185"/><path d="m16.3737.0001 3.766.058.29 3.997"/><path d="m10.323 15.6612v7.031"/><path d="m8.0554 19.9108h4.425"/></g></g></svg>