  <svg
        xmlns="http://www.w3.org/2000/svg"
        width="502"
        height="223"
        viewBox="0 0 502 223"
      >
        <g fill="#FFF">
          <path d="M39.172,169.678 C42.832,171.393 45.87,173.888 48.129,177.085 C50.465,180.282 51.945,184.025 52.723,188.314 L34.89,188.314 C34.111,186.521 32.943,185.117 31.464,184.181 C29.984,183.168 28.271,182.7 26.324,182.7 C23.52,182.7 21.262,183.791 19.626,185.897 C17.991,188.002 17.134,190.887 17.134,194.474 C17.134,198.061 17.991,200.946 19.626,203.052 C21.262,205.157 23.52,206.249 26.324,206.249 C28.271,206.249 29.984,205.781 31.464,204.767 C32.944,203.753 34.112,202.428 34.89,200.634 L52.724,200.634 C51.945,204.923 50.466,208.666 48.13,211.863 C45.793,215.06 42.834,217.555 39.174,219.271 C35.514,220.986 31.308,221.922 26.635,221.922 C21.184,221.922 16.511,220.752 12.461,218.491 C8.49,216.152 5.375,212.955 3.194,208.744 C1.09,204.533 0,199.777 0,194.474 C0,189.172 1.09,184.415 3.27,180.204 C5.451,176.072 8.489,172.797 12.538,170.457 C16.51,168.118 21.261,167.026 26.712,167.026 C31.307,167.026 35.434,167.884 39.172,169.678 L39.172,169.678 Z M98.983,170.223 C103.188,172.563 106.537,175.838 108.951,180.126 C111.443,184.337 112.611,189.094 112.611,194.396 C112.611,199.699 111.365,204.455 108.951,208.666 C106.459,212.877 103.11,216.152 98.905,218.569 C94.699,220.986 90.026,222.156 85.042,222.156 C79.98,222.156 75.308,220.986 71.102,218.569 C66.897,216.152 63.47,212.877 61.056,208.666 C58.564,204.455 57.318,199.699 57.318,194.396 C57.318,189.094 58.564,184.337 61.056,180.126 C63.548,175.916 66.896,172.641 71.102,170.223 C75.308,167.884 79.98,166.714 85.042,166.714 C90.104,166.636 94.777,167.806 98.982,170.223 L98.983,170.223 Z M77.255,185.507 C75.463,187.69 74.529,190.575 74.529,194.318 C74.529,197.983 75.463,200.868 77.255,203.052 C79.045,205.235 81.694,206.249 85.12,206.249 C88.469,206.249 91.039,205.157 92.908,203.052 C94.778,200.946 95.634,197.983 95.634,194.318 C95.634,190.575 94.699,187.69 92.908,185.507 C91.117,183.324 88.469,182.31 85.12,182.31 C81.694,182.232 79.046,183.324 77.255,185.507 Z M183.48,167.572 L183.48,221.532 L166.659,221.532 L166.659,194.63 L158.403,221.532 L143.918,221.532 L135.663,194.63 L135.663,221.532 L118.764,221.532 L118.764,167.572 L139.479,167.572 L151.317,199.933 L162.92,167.572 L183.48,167.572 L183.48,167.572 Z M208.011,167.572 L208.011,221.532 L191.112,221.532 L191.112,167.572 L208.011,167.572 Z M267.276,221.532 L250.377,221.532 L232.465,194.396 L232.465,221.532 L215.565,221.532 L215.565,167.572 L232.465,167.572 L250.377,195.176 L250.377,167.572 L267.276,167.572 L267.276,221.532 Z M317.819,172.095 C322.258,175.526 324.906,180.126 325.685,185.975 L307.851,185.975 C307.228,184.883 306.215,184.103 305.047,183.479 C303.801,182.934 302.321,182.622 300.608,182.622 C297.337,182.622 294.845,183.713 293.054,185.819 C291.263,187.924 290.406,190.809 290.406,194.474 C290.406,198.685 291.419,201.804 293.365,203.909 C295.312,206.015 298.35,207.028 302.477,207.028 C306.371,207.028 309.564,205.469 311.9,202.272 L298.428,202.272 L298.428,190.341 L325.918,190.341 L325.918,207.262 C323.582,211.239 320.389,214.748 316.262,217.555 C312.134,220.44 306.916,221.844 300.686,221.844 C295.079,221.844 290.25,220.674 286.123,218.413 C281.995,216.074 278.802,212.877 276.622,208.666 C274.441,204.533 273.273,199.777 273.273,194.396 C273.273,189.094 274.363,184.337 276.622,180.126 C278.802,175.994 281.995,172.719 286.123,170.379 C290.25,168.04 295.079,166.948 300.608,166.948 C307.617,167.026 313.38,168.742 317.819,172.095 L317.819,172.095 Z M385.183,170.223 C389.389,172.563 392.737,175.838 395.152,180.126 C397.644,184.337 398.812,189.094 398.812,194.396 C398.812,199.699 397.566,204.455 395.152,208.666 C392.66,212.877 389.311,216.152 385.105,218.569 C380.9,220.986 376.227,222.156 371.243,222.156 C366.181,222.156 361.508,220.986 357.303,218.569 C353.098,216.152 349.671,212.877 347.257,208.666 C344.765,204.455 343.519,199.699 343.519,194.396 C343.519,189.094 344.765,184.337 347.257,180.126 C349.749,175.916 353.098,172.641 357.303,170.223 C361.508,167.884 366.181,166.714 371.243,166.714 C376.305,166.636 380.978,167.806 385.183,170.223 L385.183,170.223 Z M363.455,185.507 C361.664,187.69 360.73,190.575 360.73,194.318 C360.73,197.983 361.664,200.868 363.455,203.052 C365.247,205.235 367.894,206.249 371.321,206.249 C374.67,206.249 377.24,205.157 379.109,203.052 C380.9,200.868 381.835,197.983 381.835,194.318 C381.835,190.575 380.9,187.69 379.109,185.507 C377.318,183.324 374.67,182.31 371.321,182.31 C367.894,182.232 365.247,183.324 363.455,185.507 Z M421.475,167.572 L421.475,197.983 C421.475,200.478 422.02,202.428 423.11,203.909 C424.2,205.391 425.991,206.093 428.406,206.093 C430.82,206.093 432.611,205.391 433.779,203.909 C434.947,202.428 435.493,200.478 435.493,197.983 L435.493,167.572 L452.314,167.572 L452.314,197.983 C452.314,203.13 451.224,207.496 449.121,211.161 C447.018,214.826 444.059,217.555 440.399,219.349 C436.661,221.142 432.533,222.078 428.016,222.078 C423.421,222.078 419.372,221.142 415.867,219.349 C412.363,217.555 409.559,214.826 407.612,211.161 C405.665,207.574 404.653,203.13 404.653,197.983 L404.653,167.572 L421.475,167.572 L421.475,167.572 Z M502,167.572 L502,180.984 L487.671,180.984 L487.671,221.532 L470.771,221.532 L470.771,180.984 L456.597,180.984 L456.597,167.572 L502,167.572 Z" />
          <path
            d="M39.172,3.08 C42.832,4.796 45.87,7.291 48.129,10.488 C50.465,13.685 51.945,17.428 52.723,21.717 L34.89,21.717 C34.111,19.923 32.943,18.52 31.464,17.584 C29.984,16.57 28.271,16.102 26.324,16.102 C23.52,16.102 21.262,17.194 19.626,19.299 C17.991,21.405 17.134,24.29 17.134,27.877 C17.134,31.464 17.991,34.349 19.626,36.454 C21.262,38.56 23.52,39.651 26.324,39.651 C28.271,39.651 29.984,39.183 31.464,38.17 C32.944,37.156 34.112,35.83 34.89,34.037 L52.724,34.037 C51.945,38.326 50.466,42.069 48.13,45.266 C45.793,48.463 42.834,50.958 39.174,52.673 C35.514,54.389 31.308,55.325 26.635,55.325 C21.184,55.325 16.511,54.155 12.461,51.894 C8.49,49.554 5.375,46.357 3.194,42.146 C1.09,38.014 0,33.257 0,27.877 C0,22.574 1.09,17.818 3.27,13.607 C5.451,9.474 8.489,6.199 12.538,3.86 C16.51,1.521 21.261,0.429 26.712,0.429 C31.307,0.507 35.434,1.365 39.172,3.08 L39.172,3.08 Z M98.983,3.626 C103.188,5.965 106.537,9.24 108.951,13.529 C111.443,17.74 112.611,22.496 112.611,27.799 C112.611,33.101 111.365,37.858 108.951,42.069 C106.459,46.279 103.11,49.554 98.905,51.972 C94.699,54.389 90.026,55.559 85.042,55.559 C79.98,55.559 75.308,54.389 71.102,51.972 C66.897,49.554 63.47,46.279 61.056,42.069 C58.564,37.858 57.318,33.101 57.318,27.799 C57.318,22.496 58.564,17.74 61.056,13.529 C63.548,9.318 66.896,6.043 71.102,3.626 C75.308,1.209 79.98,0.117 85.042,0.117 C90.104,0.117 94.777,1.287 98.982,3.626 L98.983,3.626 Z M77.255,18.987 C75.463,21.171 74.529,24.056 74.529,27.799 C74.529,31.464 75.463,34.349 77.255,36.532 C79.045,38.716 81.694,39.729 85.12,39.729 C88.469,39.729 91.039,38.638 92.908,36.532 C94.778,34.427 95.634,31.464 95.634,27.799 C95.634,24.056 94.699,21.171 92.908,18.987 C91.117,16.804 88.469,15.79 85.12,15.79 C81.694,15.712 79.046,16.804 77.255,18.987 Z M183.48,0.975 L183.48,54.935 L166.659,54.935 L166.659,28.033 L158.403,54.935 L143.918,54.935 L135.663,28.033 L135.663,54.935 L118.764,54.935 L118.764,0.975 L139.479,0.975 L151.317,33.335 L162.92,0.975 L183.48,0.975 L183.48,0.975 Z M208.011,0.975 L208.011,54.935 L191.112,54.935 L191.112,0.975 L208.011,0.975 Z M267.276,54.935 L250.377,54.935 L232.465,27.799 L232.465,54.935 L215.565,54.935 L215.565,0.975 L232.465,0.975 L250.377,28.579 L250.377,0.975 L267.276,0.975 L267.276,54.935 Z M317.819,5.575 C322.258,9.006 324.906,13.607 325.685,19.455 L307.851,19.455 C307.228,18.364 306.215,17.584 305.047,16.96 C303.801,16.414 302.321,16.102 300.608,16.102 C297.337,16.102 294.845,17.194 293.054,19.299 C291.263,21.405 290.406,24.29 290.406,27.955 C290.406,32.165 291.419,35.285 293.365,37.39 C295.312,39.495 298.35,40.509 302.477,40.509 C306.371,40.509 309.564,38.949 311.9,35.752 L298.428,35.752 L298.428,23.822 L325.918,23.822 L325.918,40.743 C323.582,44.72 320.389,48.229 316.262,51.036 C312.134,53.921 306.916,55.325 300.686,55.325 C295.079,55.325 290.25,54.155 286.123,51.894 C281.995,49.554 278.802,46.357 276.622,42.146 C274.441,38.014 273.273,33.257 273.273,27.877 C273.273,22.574 274.363,17.818 276.622,13.607 C278.802,9.474 281.995,6.199 286.123,3.86 C290.25,1.521 295.079,0.429 300.608,0.429 C307.617,0.507 313.38,2.144 317.819,5.575 L317.819,5.575 Z M385.183,3.626 C389.389,5.965 392.737,9.24 395.152,13.529 C397.644,17.74 398.812,22.496 398.812,27.799 C398.812,33.101 397.566,37.858 395.152,42.069 C392.66,46.279 389.311,49.554 385.105,51.972 C380.9,54.389 376.227,55.559 371.243,55.559 C366.181,55.559 361.508,54.389 357.303,51.972 C353.098,49.554 349.671,46.279 347.257,42.069 C344.765,37.858 343.519,33.101 343.519,27.799 C343.519,22.496 344.765,17.74 347.257,13.529 C349.749,9.318 353.098,6.043 357.303,3.626 C361.508,1.209 366.181,0.117 371.243,0.117 C376.305,0.117 380.978,1.287 385.183,3.626 L385.183,3.626 Z M363.455,18.987 C361.664,21.171 360.73,24.056 360.73,27.799 C360.73,31.464 361.664,34.349 363.455,36.532 C365.247,38.716 367.894,39.729 371.321,39.729 C374.67,39.729 377.24,38.638 379.109,36.532 C380.9,34.349 381.835,31.464 381.835,27.799 C381.835,24.056 380.9,21.171 379.109,18.987 C377.318,16.804 374.67,15.79 371.321,15.79 C367.894,15.712 365.247,16.804 363.455,18.987 Z M421.475,0.975 L421.475,31.386 C421.475,33.881 422.02,35.83 423.11,37.312 C424.2,38.793 425.991,39.495 428.406,39.495 C430.82,39.495 432.611,38.793 433.779,37.312 C434.947,35.83 435.493,33.881 435.493,31.386 L435.493,0.975 L452.314,0.975 L452.314,31.386 C452.314,36.532 451.224,40.899 449.121,44.564 C447.018,48.229 444.059,50.958 440.399,52.751 C436.661,54.545 432.533,55.481 428.016,55.481 C423.421,55.481 419.372,54.545 415.867,52.751 C412.363,50.958 409.559,48.229 407.612,44.564 C405.665,40.977 404.653,36.532 404.653,31.386 L404.653,0.975 L421.475,0.975 L421.475,0.975 Z M502,0.975 L502,14.387 L487.671,14.387 L487.671,54.935 L470.771,54.935 L470.771,14.387 L456.597,14.387 L456.597,0.975 L502,0.975 Z"
            opacity=".6"
            transform="translate(0 111)"
          />
          <path
            d="M39.172,3.56 C42.832,5.276 45.87,7.771 48.129,10.968 C50.465,14.165 51.945,17.908 52.723,22.198 L34.89,22.198 C34.111,20.404 32.943,19 31.464,18.064 C29.984,17.051 28.271,16.583 26.324,16.583 C23.52,16.583 21.262,17.674 19.626,19.78 C17.991,21.885 17.134,24.77 17.134,28.357 C17.134,31.944 17.991,34.829 19.626,36.935 C21.262,39.04 23.52,40.132 26.324,40.132 C28.271,40.132 29.984,39.664 31.464,38.65 C32.944,37.636 34.112,36.31 34.89,34.517 L52.724,34.517 C51.945,38.807 50.466,42.549 48.13,45.746 C45.793,48.943 42.834,51.438 39.174,53.154 C35.514,54.869 31.308,55.805 26.635,55.805 C21.184,55.805 16.511,54.635 12.461,52.374 C8.49,50.035 5.375,46.838 3.194,42.627 C1.09,38.417 0,33.66 0,28.357 C0,23.055 1.09,18.298 3.27,14.087 C5.451,9.955 8.489,6.68 12.538,4.34 C16.51,2.001 21.261,0.91 26.712,0.91 C31.307,0.91 35.434,1.767 39.172,3.56 Z M98.983,4.106 C103.188,6.446 106.537,9.721 108.951,14.01 C111.443,18.22 112.611,22.977 112.611,28.28 C112.611,33.582 111.365,38.338 108.951,42.549 C106.459,46.76 103.11,50.035 98.905,52.452 C94.699,54.869 90.026,56.039 85.042,56.039 C79.98,56.039 75.308,54.869 71.102,52.452 C66.897,50.035 63.47,46.76 61.056,42.549 C58.564,38.339 57.318,33.582 57.318,28.279 C57.318,22.977 58.564,18.22 61.056,14.009 C63.548,9.799 66.896,6.524 71.102,4.106 C75.308,1.767 79.98,0.597 85.042,0.597 C90.104,0.519 94.777,1.767 98.982,4.107 L98.983,4.106 Z M77.255,19.39 C75.463,21.573 74.529,24.458 74.529,28.201 C74.529,31.866 75.463,34.751 77.255,36.935 C79.045,39.118 81.694,40.132 85.12,40.132 C88.469,40.132 91.039,39.04 92.908,36.935 C94.778,34.829 95.634,31.866 95.634,28.201 C95.634,24.458 94.699,21.573 92.908,19.39 C91.117,17.207 88.469,16.193 85.12,16.193 C81.694,16.193 79.046,17.207 77.255,19.39 L77.255,19.39 Z M183.48,1.455 L183.48,55.415 L166.659,55.415 L166.659,28.513 L158.403,55.415 L143.918,55.415 L135.663,28.513 L135.663,55.415 L118.764,55.415 L118.764,1.455 L139.479,1.455 L151.317,33.815 L162.92,1.455 L183.48,1.455 L183.48,1.455 Z M208.011,1.455 L208.011,55.415 L191.112,55.415 L191.112,1.455 L208.011,1.455 Z M267.276,55.415 L250.377,55.415 L232.465,28.279 L232.465,55.415 L215.565,55.415 L215.565,1.455 L232.465,1.455 L250.377,29.059 L250.377,1.455 L267.276,1.455 L267.276,55.415 L267.276,55.415 Z M317.819,6.056 C322.258,9.486 324.906,14.088 325.685,19.936 L307.851,19.936 C307.228,18.844 306.215,18.064 305.047,17.44 C303.801,16.895 302.321,16.583 300.608,16.583 C297.337,16.583 294.845,17.674 293.054,19.78 C291.263,21.885 290.406,24.77 290.406,28.435 C290.406,32.645 291.419,35.765 293.365,37.87 C295.312,39.976 298.35,40.99 302.477,40.99 C306.371,40.99 309.564,39.43 311.9,36.233 L298.428,36.233 L298.428,24.303 L325.918,24.303 L325.918,41.223 C323.582,45.2 320.389,48.709 316.262,51.516 C312.134,54.401 306.916,55.805 300.686,55.805 C295.079,55.805 290.25,54.635 286.123,52.374 C281.995,50.035 278.802,46.838 276.622,42.627 C274.441,38.494 273.273,33.737 273.273,28.357 C273.273,23.055 274.363,18.298 276.622,14.087 C278.802,9.955 281.995,6.68 286.123,4.34 C290.25,2.001 295.079,0.91 300.608,0.91 C307.617,0.91 313.38,2.625 317.819,6.056 L317.819,6.056 Z M385.183,4.106 C389.389,6.446 392.737,9.721 395.152,14.01 C397.644,18.22 398.812,22.977 398.812,28.28 C398.812,33.582 397.566,38.338 395.152,42.549 C392.66,46.76 389.311,50.035 385.105,52.452 C380.9,54.869 376.227,56.039 371.243,56.039 C366.181,56.039 361.508,54.869 357.303,52.452 C353.098,50.035 349.671,46.76 347.257,42.549 C344.765,38.339 343.519,33.582 343.519,28.279 C343.519,22.977 344.765,18.22 347.257,14.009 C349.749,9.799 353.098,6.524 357.303,4.106 C361.508,1.767 366.181,0.597 371.243,0.597 C376.305,0.519 380.978,1.767 385.183,4.107 L385.183,4.106 Z M363.455,19.39 C361.664,21.573 360.73,24.458 360.73,28.201 C360.73,31.866 361.664,34.751 363.455,36.935 C365.247,39.118 367.894,40.132 371.321,40.132 C374.67,40.132 377.24,39.04 379.109,36.935 C380.9,34.751 381.835,31.866 381.835,28.201 C381.835,24.458 380.9,21.573 379.109,19.39 C377.318,17.207 374.67,16.193 371.321,16.193 C367.894,16.193 365.247,17.207 363.455,19.39 L363.455,19.39 Z M421.475,1.455 L421.475,31.866 C421.475,34.361 422.02,36.311 423.11,37.792 C424.2,39.274 425.991,39.976 428.406,39.976 C430.82,39.976 432.611,39.274 433.779,37.792 C434.947,36.311 435.493,34.362 435.493,31.866 L435.493,1.456 L452.314,1.456 L452.314,31.866 C452.314,37.013 451.224,41.379 449.121,45.044 C447.018,48.709 444.059,51.438 440.399,53.232 C436.661,55.025 432.533,55.961 428.016,55.961 C423.421,55.961 419.372,55.025 415.867,53.232 C412.363,51.438 409.559,48.709 407.612,45.044 C405.665,41.457 404.653,37.013 404.653,31.866 L404.653,1.456 L421.475,1.456 L421.475,1.455 Z M502,1.455 L502,14.867 L487.671,14.867 L487.671,55.415 L470.771,55.415 L470.771,14.867 L456.597,14.867 L456.597,1.455 L502,1.455 Z"
            opacity=".3"
            transform="translate(0 55)"
          />
          <path
            d="M39.172,3.041 C42.832,4.757 45.87,7.251 48.129,10.449 C50.465,13.646 51.945,17.389 52.723,21.678 L34.89,21.678 C34.111,19.884 32.943,18.48 31.464,17.545 C29.984,16.531 28.271,16.063 26.324,16.063 C23.52,16.063 21.262,17.155 19.626,19.26 C17.991,21.366 17.134,24.173 17.134,27.838 C17.134,31.425 17.991,34.31 19.626,36.415 C21.262,38.521 23.52,39.612 26.324,39.612 C28.271,39.612 29.984,39.144 31.464,38.131 C32.944,37.117 34.112,35.791 34.89,33.998 L52.724,33.998 C51.945,38.287 50.466,42.03 48.13,45.227 C45.793,48.424 42.834,50.919 39.174,52.634 C35.514,54.35 31.308,55.286 26.635,55.286 C21.184,55.286 16.511,54.116 12.461,51.855 C8.49,49.515 5.375,46.318 3.194,42.108 C1.013,37.897 0,33.14 0,27.838 C0,22.535 1.09,17.778 3.27,13.568 C5.374,9.358 8.489,6.16 12.46,3.821 C16.432,1.48 21.183,0.39 26.634,0.39 C31.307,0.39 35.434,1.248 39.172,3.041 Z M98.983,3.509 C103.188,5.849 106.537,9.123 108.951,13.412 C111.443,17.622 112.611,22.379 112.611,27.682 C112.611,32.984 111.365,37.741 108.951,41.952 C106.459,46.162 103.11,49.437 98.905,51.855 C94.699,54.272 90.026,55.442 85.042,55.442 C79.98,55.442 75.308,54.272 71.102,51.855 C66.897,49.437 63.47,46.162 61.056,41.952 C58.564,37.741 57.318,32.984 57.318,27.682 C57.318,22.379 58.564,17.622 61.056,13.412 C63.548,9.202 66.896,5.926 71.102,3.509 C75.308,1.092 79.98,0 85.042,0 C90.104,0 94.777,1.17 98.982,3.509 L98.983,3.509 Z M77.255,18.87 C75.463,21.054 74.529,23.939 74.529,27.682 C74.529,31.347 75.463,34.232 77.255,36.415 C79.045,38.599 81.694,39.612 85.12,39.612 C88.469,39.612 91.039,38.521 92.908,36.415 C94.699,34.232 95.634,31.347 95.634,27.682 C95.634,23.939 94.699,21.054 92.908,18.87 C91.117,16.687 88.469,15.673 85.12,15.673 C81.694,15.595 79.046,16.687 77.255,18.87 Z M183.48,0.936 L183.48,54.896 L166.659,54.896 L166.659,27.994 L158.403,54.896 L143.918,54.896 L135.663,27.994 L135.663,54.896 L118.764,54.896 L118.764,0.936 L139.479,0.936 L151.317,33.296 L162.92,0.936 L183.48,0.936 Z M208.011,0.936 L208.011,54.896 L191.112,54.896 L191.112,0.936 L208.011,0.936 Z M267.276,54.818 L250.377,54.818 L232.465,27.682 L232.465,54.818 L215.565,54.818 L215.565,0.936 L232.465,0.936 L250.377,28.54 L250.377,0.936 L267.276,0.936 L267.276,54.818 Z M317.819,5.458 C322.258,8.889 324.906,13.49 325.685,19.338 L307.851,19.338 C307.228,18.247 306.215,17.467 305.047,16.843 C303.801,16.297 302.321,15.985 300.608,15.985 C297.337,15.985 294.845,17.077 293.054,19.182 C291.263,21.288 290.406,24.172 290.406,27.838 C290.406,32.048 291.419,35.168 293.365,37.273 C295.312,39.378 298.35,40.392 302.477,40.392 C306.371,40.392 309.564,38.832 311.9,35.635 L298.428,35.635 L298.428,23.705 L325.918,23.705 L325.918,40.625 C323.582,44.603 320.389,48.112 316.262,50.919 C312.134,53.804 306.916,55.208 300.686,55.208 C295.079,55.208 290.25,54.038 286.123,51.777 C281.995,49.437 278.802,46.24 276.622,42.029 C274.441,37.897 273.273,33.14 273.273,27.759 C273.273,22.379 274.363,17.701 276.622,13.49 C278.802,9.357 281.995,6.082 286.123,3.743 C290.25,1.403 295.079,0.312 300.608,0.312 C307.617,0.39 313.38,2.105 317.819,5.458 L317.819,5.458 Z M385.183,3.509 C389.389,5.849 392.737,9.123 395.152,13.412 C397.644,17.622 398.812,22.379 398.812,27.682 C398.812,32.984 397.566,37.741 395.152,41.952 C392.66,46.162 389.311,49.437 385.105,51.855 C380.9,54.272 376.227,55.442 371.243,55.442 C366.181,55.442 361.508,54.272 357.303,51.855 C353.098,49.437 349.671,46.162 347.257,41.952 C344.765,37.741 343.519,32.984 343.519,27.682 C343.519,22.379 344.765,17.622 347.257,13.412 C349.749,9.202 353.098,5.926 357.303,3.509 C361.508,1.092 366.181,0 371.243,0 C376.305,0 380.978,1.17 385.183,3.509 Z M363.455,18.87 C361.664,21.054 360.73,23.939 360.73,27.682 C360.73,31.347 361.664,34.232 363.455,36.415 C365.247,38.599 367.894,39.612 371.321,39.612 C374.67,39.612 377.24,38.521 379.109,36.415 C380.9,34.232 381.835,31.347 381.835,27.682 C381.835,23.939 380.9,21.054 379.109,18.87 C377.318,16.687 374.67,15.673 371.321,15.673 C367.894,15.595 365.247,16.687 363.455,18.87 Z M421.475,0.936 L421.475,31.346 C421.475,33.842 422.02,35.791 423.11,37.273 C424.2,38.754 425.991,39.456 428.406,39.456 C430.82,39.456 432.611,38.754 433.779,37.273 C434.947,35.791 435.493,33.842 435.493,31.347 L435.493,0.936 L452.314,0.936 L452.314,31.346 C452.314,36.493 451.224,40.86 449.121,44.525 C447.018,48.19 444.059,50.919 440.399,52.712 C436.661,54.506 432.533,55.442 428.016,55.442 C423.421,55.442 419.372,54.506 415.867,52.712 C412.363,50.919 409.559,48.19 407.612,44.525 C405.665,40.938 404.653,36.493 404.653,31.347 L404.653,0.936 L421.475,0.936 L421.475,0.936 Z M502,0.936 L502,14.348 L487.671,14.348 L487.671,54.896 L470.771,54.896 L470.771,14.348 L456.597,14.348 L456.597,0.936 L502,0.936 Z"
            opacity=".12"
          />
        </g>
      </svg>