<svg xmlns="http://www.w3.org/2000/svg" width="146" height="50" viewBox="0 0 146 50">
    <g fill="none" fill-rule="evenodd">
        <rect width="146" height="50" fill="#000" rx="6.266"/>
        <path fill="#FFF" d="M56.544 36.557h-2.486l-1.36-4.32h-4.733l-1.297 4.32h-2.42l4.689-14.709h2.896l4.71 14.71zm-4.257-6.133h-3.91l1.209-3.84c.317-1.222.548-2.146.691-2.772h.044c.36 1.455.604 2.379.735 2.771l1.23 3.84zm16.313.7c0 1.803-.482 3.23-1.448 4.276-.864.932-1.938 1.397-3.22 1.397-1.382 0-2.376-.502-2.981-1.505h-.044v5.587h-2.333V29.442c0-1.134-.03-2.297-.087-3.491h2.052l.13 1.681h.044c.778-1.267 1.96-1.899 3.544-1.899 1.239 0 2.273.494 3.1 1.483.83.99 1.243 2.293 1.243 3.908zm-2.377.086c0-1.033-.23-1.884-.691-2.553-.505-.699-1.182-1.048-2.031-1.048-.576 0-1.1.194-1.566.578a2.685 2.685 0 0 0-.919 1.517c-.072.292-.108.53-.108.719v1.768c0 .772.234 1.423.703 1.954.468.532 1.076.797 1.825.797.879 0 1.563-.342 2.052-1.025.49-.685.735-1.586.735-2.707zm14.456-.086c0 1.803-.483 3.23-1.45 4.276-.863.932-1.936 1.397-3.218 1.397-1.383 0-2.377-.502-2.98-1.505h-.045v5.587h-2.333V29.442c0-1.134-.03-2.297-.086-3.491h2.052l.13 1.681h.044c.777-1.267 1.958-1.899 3.543-1.899 1.238 0 2.272.494 3.102 1.483.826.99 1.24 2.293 1.24 3.908zm-2.377.086c0-1.033-.231-1.884-.693-2.553-.504-.699-1.18-1.048-2.03-1.048-.577 0-1.099.194-1.567.578a2.684 2.684 0 0 0-.917 1.517c-.071.292-.109.53-.109.719v1.768c0 .772.235 1.423.7 1.954.47.53 1.078.797 1.828.797.88 0 1.563-.342 2.052-1.025.49-.685.736-1.586.736-2.707zm15.881 1.222c0 1.251-.43 2.27-1.293 3.055-.95.859-2.27 1.288-3.968 1.288-1.567 0-2.823-.305-3.774-.916l.54-1.965a6.348 6.348 0 0 0 3.373.94c.88 0 1.563-.201 2.055-.601.489-.4.733-.938.733-1.607 0-.597-.202-1.1-.605-1.508-.402-.408-1.073-.787-2.01-1.137-2.55-.96-3.823-2.368-3.823-4.218 0-1.21.446-2.2 1.34-2.972.891-.773 2.08-1.158 3.566-1.158 1.325 0 2.426.233 3.305.698l-.584 1.921c-.82-.45-1.748-.676-2.787-.676-.82 0-1.462.204-1.922.61a1.754 1.754 0 0 0-.583 1.333c0 .581.222 1.062.669 1.44.388.35 1.094.727 2.118 1.135 1.253.51 2.174 1.105 2.766 1.788.59.681.884 1.533.884 2.55zm7.714-4.713h-2.572v5.15c0 1.31.454 1.964 1.362 1.964a4.11 4.11 0 0 0 1.036-.11l.065 1.79c-.46.173-1.065.26-1.815.26-.921 0-1.641-.283-2.161-.85-.518-.568-.778-1.521-.778-2.86v-5.346h-1.532V25.95h1.532v-1.942l2.291-.699v2.64h2.572v1.771zm11.604 3.448c0 1.63-.462 2.968-1.384 4.015-.966 1.078-2.249 1.615-3.847 1.615-1.541 0-2.768-.516-3.683-1.549-.915-1.032-1.372-2.335-1.372-3.906 0-1.643.47-2.99 1.415-4.036.942-1.048 2.214-1.572 3.813-1.572 1.54 0 2.78.516 3.716 1.55.895 1.002 1.342 2.297 1.342 3.883zm-2.421.076c0-.978-.207-1.817-.626-2.517-.49-.846-1.189-1.269-2.095-1.269-.938 0-1.65.424-2.14 1.27-.418.7-.625 1.552-.625 2.56 0 .978.207 1.817.626 2.516.504.846 1.21 1.269 2.119 1.269.89 0 1.59-.431 2.094-1.291.43-.713.647-1.561.647-2.538zm10.005-3.22a4.012 4.012 0 0 0-.736-.065c-.82 0-1.455.313-1.902.94-.388.552-.583 1.25-.583 2.094v5.565h-2.332l.022-7.266c0-1.222-.03-2.335-.088-3.339h2.032l.086 2.03h.064c.246-.698.635-1.26 1.167-1.68.52-.38 1.081-.569 1.686-.569.216 0 .41.016.584.043v2.247zm10.434 2.73c0 .421-.027.777-.085 1.068h-7c.028 1.048.366 1.85 1.016 2.402.59.494 1.353.741 2.29.741 1.036 0 1.981-.167 2.832-.501l.365 1.635c-.994.438-2.167.656-3.52.656-1.629 0-2.907-.484-3.837-1.451-.928-.968-1.393-2.266-1.393-3.895 0-1.6.432-2.932 1.297-3.994.907-1.134 2.131-1.7 3.672-1.7 1.514 0 2.66.566 3.437 1.7.617.901.926 2.015.926 3.338zm-2.225-.612c.016-.699-.136-1.302-.453-1.812-.403-.655-1.024-.982-1.859-.982-.763 0-1.383.32-1.857.96-.389.51-.62 1.121-.69 1.833h4.86v.001zM51.515 12.8c0 1.3-.386 2.28-1.158 2.937-.714.607-1.73.91-3.045.91-.652 0-1.21-.028-1.678-.085V9.454c.61-.1 1.266-.15 1.975-.15 1.253 0 2.198.275 2.835.825.713.622 1.071 1.512 1.071 2.67zm-1.21.031c0-.843-.22-1.49-.662-1.94-.442-.45-1.088-.676-1.938-.676-.361 0-.669.025-.924.075v5.404c.141.022.4.032.775.032.878 0 1.555-.246 2.032-.74.477-.492.718-1.21.718-2.155zm7.622 1.105c0 .8-.226 1.457-.68 1.973-.475.529-1.104.793-1.89.793-.757 0-1.36-.253-1.81-.761-.448-.508-.673-1.148-.673-1.92 0-.806.231-1.468.695-1.982.464-.514 1.088-.771 1.874-.771.757 0 1.366.253 1.826.76.438.493.658 1.13.658 1.908zm-1.19.037c0-.48-.102-.893-.307-1.237-.24-.415-.583-.623-1.029-.623-.46 0-.81.208-1.051.623-.206.344-.308.763-.308 1.258 0 .481.103.893.308 1.237.248.416.594.623 1.04.623.438 0 .782-.21 1.029-.634.212-.35.318-.766.318-1.247zm9.787-2.6l-1.614 5.21h-1.05l-.67-2.262a17.072 17.072 0 0 1-.414-1.683h-.02c-.1.573-.238 1.133-.415 1.683l-.71 2.263h-1.063l-1.518-5.21h1.178l.584 2.477c.14.585.257 1.143.35 1.672h.02c.086-.436.227-.99.426-1.661l.733-2.487h.934l.702 2.434c.17.593.307 1.164.413 1.715h.032c.078-.536.195-1.108.35-1.715l.626-2.434h1.126v-.001zm5.946 5.21h-1.147V13.6c0-.92-.346-1.38-1.04-1.38-.34 0-.615.126-.828.38a1.353 1.353 0 0 0-.318.892v3.09H67.99v-3.72c0-.457-.015-.953-.042-1.49h1.008l.054.814h.031c.134-.253.333-.462.595-.629.31-.194.658-.293 1.04-.293.48 0 .881.157 1.2.472.396.386.594.962.594 1.727v3.12zm2.017-7.6h1.146v7.6h-1.146v-7.6zm7.898 4.953c0 .8-.227 1.457-.68 1.973-.475.529-1.105.793-1.89.793-.758 0-1.361-.253-1.81-.761-.448-.508-.673-1.148-.673-1.92 0-.806.231-1.468.695-1.982.464-.514 1.088-.771 1.873-.771.758 0 1.365.253 1.827.76.438.493.658 1.13.658 1.908zm-1.19.037c0-.48-.104-.893-.308-1.237-.24-.415-.584-.623-1.028-.623-.462 0-.812.208-1.052.623-.205.344-.307.763-.307 1.258 0 .481.103.893.307 1.237.249.416.595.623 1.041.623.438 0 .78-.21 1.028-.634.213-.35.318-.766.318-1.247zm6.74 2.61h-1.03l-.085-.6h-.031c-.353.48-.855.72-1.507.72-.487 0-.881-.159-1.178-.473-.27-.285-.404-.64-.404-1.06 0-.638.263-1.123.791-1.459.528-.336 1.27-.5 2.225-.493v-.097c0-.686-.356-1.029-1.071-1.029-.509 0-.958.13-1.345.386l-.233-.76c.48-.3 1.071-.45 1.77-.45 1.348 0 2.024.718 2.024 2.155v1.919c0 .52.025.935.074 1.242zm-1.19-1.79v-.803c-1.265-.022-1.898.328-1.898 1.05 0 .272.072.475.22.611a.798.798 0 0 0 .56.203c.252 0 .487-.08.702-.24a.988.988 0 0 0 .416-.82zm7.707 1.79h-1.017l-.054-.836h-.032c-.325.637-.879.955-1.657.955-.621 0-1.139-.246-1.55-.74-.41-.492-.614-1.132-.614-1.918 0-.843.222-1.526.668-2.048.433-.486.962-.73 1.593-.73.692 0 1.177.236 1.453.708h.022V8.983h1.148v6.197c0 .507.013.975.04 1.404zm-1.188-2.196v-.87a1.322 1.322 0 0 0-.446-1.067 1.12 1.12 0 0 0-.768-.283c-.428 0-.763.172-1.009.515-.244.344-.368.783-.368 1.319 0 .515.118.933.353 1.254.248.343.583.514 1.002.514a1.1 1.1 0 0 0 .906-.429c.221-.264.33-.582.33-.953zm10.997-.451c0 .8-.227 1.457-.68 1.973-.475.529-1.103.793-1.89.793-.756 0-1.359-.253-1.81-.761-.448-.508-.673-1.148-.673-1.92 0-.806.231-1.468.695-1.982.464-.514 1.088-.771 1.875-.771.756 0 1.366.253 1.825.76.438.493.658 1.13.658 1.908zm-1.188.037c0-.48-.103-.893-.308-1.237-.242-.415-.583-.623-1.03-.623-.46 0-.81.208-1.051.623-.206.344-.308.763-.308 1.258 0 .481.103.893.308 1.237.248.416.594.623 1.04.623.438 0 .783-.21 1.03-.634.211-.35.319-.766.319-1.247zm7.355 2.61h-1.146V13.6c0-.92-.346-1.38-1.04-1.38-.341 0-.616.126-.828.38a1.348 1.348 0 0 0-.319.892v3.09h-1.148v-3.72c0-.457-.013-.953-.04-1.49h1.007l.053.814H107c.135-.253.334-.462.594-.629a1.928 1.928 0 0 1 1.041-.293c.48 0 .881.157 1.2.472.397.386.594.962.594 1.727v3.12zm7.718-4.342h-1.263v2.531c0 .644.225.965.669.965a2 2 0 0 0 .511-.054l.03.879c-.227.086-.525.13-.891.13-.453 0-.806-.14-1.06-.419-.257-.278-.384-.747-.384-1.405v-2.627h-.754v-.867h.754v-.955l1.124-.343v1.297h1.263v.868h.001zm6.072 4.343h-1.148v-2.962c0-.934-.346-1.402-1.039-1.402-.532 0-.895.271-1.094.813a1.47 1.47 0 0 0-.054.416v3.134h-1.146v-7.6h1.146v3.14h.022c.361-.571.879-.857 1.55-.857.475 0 .867.157 1.18.472.388.393.583.976.583 1.748v3.098zm6.263-2.852c0 .208-.016.383-.043.525h-3.44c.016.515.18.908.498 1.18.291.243.667.364 1.126.364.51 0 .973-.081 1.391-.246l.18.804c-.49.215-1.065.322-1.731.322-.8 0-1.429-.238-1.884-.713-.457-.475-.684-1.113-.684-1.913 0-.786.211-1.44.637-1.962.444-.557 1.045-.835 1.804-.835.742 0 1.305.278 1.686.835.308.442.46.99.46 1.64zm-1.095-.3a1.572 1.572 0 0 0-.222-.889c-.199-.322-.502-.483-.913-.483-.374 0-.68.157-.912.472-.19.25-.303.55-.34.9h2.387zM30.497 24.062c.036 4.303 3.73 5.726 3.774 5.741-.022.1-.578 2.054-1.963 4.037-1.157 1.745-2.369 3.452-4.293 3.483-1.87.044-2.5-1.11-4.644-1.11-2.164 0-2.834 1.079-4.628 1.154-1.833.068-3.233-1.864-4.432-3.594-2.396-3.533-4.261-9.955-1.76-14.326 1.211-2.143 3.421-3.523 5.783-3.56 1.835-.038 3.538 1.25 4.666 1.25 1.106 0 3.212-1.541 5.383-1.31.909.026 3.493.362 5.161 2.816-.135.081-3.08 1.828-3.047 5.419zm-3.532-10.56c-1.007 1.2-2.617 2.116-4.185 1.998-.206-1.617.59-3.337 1.479-4.387 1.005-1.19 2.751-2.103 4.147-2.166.184 1.681-.476 3.338-1.441 4.556z"/>
    </g>
</svg>
