<svg xmlns="http://www.w3.org/2000/svg" width="146" height="50" viewBox="0 0 146 50">
    <defs>
        <linearGradient id="a" x1="50%" x2="50%" y1="0%" y2="100%">
            <stop offset="0%" stop-color="#1E79AF"/>
            <stop offset="100%" stop-color="#63FFD3"/>
        </linearGradient>
        <linearGradient id="b" x1="84.718%" x2="5.244%" y1="28.48%" y2="78.182%">
            <stop offset="0%" stop-color="#DC4057"/>
            <stop offset="100%" stop-color="#9E36BB"/>
        </linearGradient>
        <linearGradient id="c" x1="50%" x2="50%" y1="0%" y2="97.826%">
            <stop offset="0%" stop-color="#FF9676"/>
            <stop offset="100%" stop-color="#FFD074"/>
        </linearGradient>
        <linearGradient id="d" x1="17.444%" y1="19.738%" y2="80.262%">
            <stop offset="0%" stop-color="#51C6AD"/>
            <stop offset="100%" stop-color="#D5FFA1"/>
        </linearGradient>
    </defs>
    <g fill="none" fill-rule="evenodd">
        <rect width="146" height="50" fill="#000" rx="6.266"/>
        <path fill="url(#a)" d="M.913-.15C.503-.02.236.404.236 1.046l.002 20.181c0 .635.258 1.052.658 1.191l11.095-11.293L.913-.15" transform="translate(10.91 20.55)"/>
        <path fill="url(#b)" d="M.896 22.418c.288.1.649.053 1.042-.166l13.538-7.579-3.485-3.548L.896 22.418" transform="translate(10.91 20.55)"/>
        <path fill="url(#c)" d="M15.478 14.673l4.617-2.584c.936-.525.936-1.38 0-1.905L15.46 7.59l-3.47 3.533 3.487 3.55" transform="translate(10.91 20.55)"/>
        <path fill="url(#d)" d="M15.46 7.59L1.939.022C1.554-.192 1.2-.241.914-.15l11.077 11.273 3.47-3.533" transform="translate(10.91 20.55)"/>
        <path fill="#FFF" d="M50.602 36.611l-2.867.669c-1.162.186-2.205.35-3.31.35-5.53 0-7.637-4.144-7.637-7.387 0-3.96 2.985-7.632 8.099-7.632 1.081 0 2.122.162 3.07.425 1.503.43 2.206.96 2.645 1.27l-1.666 1.61-.702.16.5-.812c-.677-.674-1.924-1.919-4.29-1.919-3.163 0-5.55 2.448-5.55 6.021 0 3.838 2.725 7.448 7.095 7.448 1.284 0 1.945-.263 2.546-.508v-3.29l-3.028.166 1.605-.877h4.249l-.52.509c-.14.12-.16.162-.198.325-.021.186-.041.776-.041.984v2.488zm6.575.756c-3.4 0-5.216-2.695-5.216-5.135 0-2.85 2.288-5.29 5.539-5.29 3.142 0 5.11 2.506 5.11 5.137 0 2.57-1.944 5.288-5.433 5.288zm2.676-1.761c.513-.697.641-1.567.641-2.414 0-1.918-.9-5.574-3.55-5.574-.708 0-1.41.28-1.924.739-.837.761-.985 1.719-.985 2.658 0 2.15 1.05 5.698 3.637 5.698.834 0 1.687-.412 2.18-1.107zm8.706 1.76c-3.4 0-5.218-2.694-5.218-5.134 0-2.85 2.287-5.29 5.54-5.29 3.143 0 5.112 2.506 5.112 5.137 0 2.57-1.946 5.288-5.434 5.288zm2.675-1.76c.517-.697.643-1.567.643-2.414 0-1.918-.898-5.574-3.55-5.574-.706 0-1.416.28-1.928.739-.835.761-.984 1.719-.984 2.658 0 2.15 1.044 5.698 3.636 5.698.837 0 1.69-.412 2.183-1.107zm10.585-7.595c.492.41 1.516 1.283 1.516 2.937 0 1.612-.893 2.372-1.793 3.091-.277.284-.6.59-.6 1.065 0 .482.323.744.556.938l.773.607c.939.807 1.795 1.547 1.795 3.05 0 2.048-1.947 4.113-5.626 4.113-3.1 0-4.597-1.502-4.597-3.113 0-.784.383-1.894 1.648-2.655 1.326-.825 3.122-.935 4.084-1-.3-.395-.643-.808-.643-1.483 0-.369.109-.589.214-.848-.234.022-.47.046-.684.046-2.268 0-3.55-1.723-3.55-3.42 0-1.001.448-2.112 1.37-2.917 1.22-1.022 2.673-1.198 3.829-1.198h4.407l-1.37.787h-1.329zm-1.515 9.664c-.176-.023-.28-.023-.492-.023-.194 0-1.35.043-2.245.348-.473.176-1.841.697-1.841 2.243 0 1.543 1.477 2.656 3.762 2.656 2.054 0 3.144-1.002 3.144-2.35 0-1.11-.706-1.697-2.328-2.874zm.615-4.136c.494-.503.537-1.197.537-1.591 0-1.566-.917-4.004-2.695-4.004-.554 0-1.155.283-1.496.72-.362.454-.47 1.043-.47 1.609 0 1.457.835 3.875 2.672 3.875.537 0 1.113-.265 1.452-.61zm6.746 1.916c0 .846.148.978.85 1.044.367.044.732.063 1.093.107l-.79.48h-3.77c.495-.653.58-.718.58-1.153v-.486l-.009-12.944h-1.664l1.602-.785h3.059c-.663.39-.861.629-.946 1.39l-.005 12.347zm10.512.169l-1.023.982c-.236.132-.471.286-.706.395-.71.328-1.433.411-2.075.411-.683 0-1.754-.045-2.847-.85-1.518-1.088-2.181-2.959-2.181-4.589 0-3.375 2.7-5.03 4.9-5.03.77 0 1.56.196 2.203.61 1.069.718 1.345 1.653 1.498 2.154l-5.027 2.067-1.647.13c.533 2.768 2.372 4.378 4.405 4.378 1.015 0 1.769-.338 2.46-.685 0 0 .139-.074.04.027zm-3.033-5.505c.408-.151.62-.281.62-.585 0-.87-.966-1.874-2.12-1.874-.854 0-2.458.678-2.458 3.03 0 .367.043.758.065 1.149l3.893-1.72zm9.198 5.598v5.544h-1.082V27.152h1.082v1.607c.705-1.039 1.992-1.862 3.488-1.862 2.683 0 4.49 2.072 4.49 5.35 0 3.258-1.807 5.373-4.49 5.373-1.412 0-2.677-.742-3.488-1.903zm6.816-3.47c0-2.47-1.266-4.356-3.51-4.356-1.394 0-2.727 1.115-3.306 2.087v4.517c.58.974 1.912 2.13 3.306 2.13 2.244 0 3.51-1.902 3.51-4.377zm2.64-8.99h1.08v14.109h-1.08v-14.11zm10.06 14.078a19.264 19.264 0 0 1-.167-.927 6.327 6.327 0 0 1-.052-.796c-.37.554-.896 1.016-1.567 1.379-.672.365-1.31.545-2.185.545-1.054 0-1.873-.264-2.456-.8-.582-.534-.875-1.259-.875-2.175 0-.916.424-1.659 1.27-2.227.845-.571 1.938-.855 3.29-.855h2.523v-1.27c0-.73-.245-1.305-.733-1.722-.49-.417-1.179-.628-2.071-.628-.816 0-1.478.193-1.982.568-.499.384-.75.858-.75 1.43h-1.108l-.023-.054c-.04-.772.307-1.448 1.044-2.033.734-.584 1.696-.877 2.879-.877 1.18 0 2.134.289 2.853.866.719.57 1.08 1.396 1.08 2.474v5.038c0 .362.017.712.06 1.053.047.34.12.682.216 1.011h-1.246zm-3.839-.802c.919 0 1.58-.21 2.254-.623.67-.41 1.127-.947 1.366-1.596v-1.961h-2.535c-.968 0-1.77.218-2.4.658-.633.439-.953.97-.953 1.587 0 .583.203 1.048.606 1.401.405.357.957.534 1.662.534zm6.999 3.816c.231.105.626.17.876.17.662 0 1.123-.276 1.537-1.248l.789-1.82-4.262-10.299h1.207l3.655 8.925 3.62-8.925h1.224l-5.197 12.46c-.54 1.284-1.388 1.9-2.554 1.9-.35 0-.81-.062-1.08-.147l.185-1.016zM36.707 11.623c0-2.191 1.613-3.6 3.619-3.6 1.344 0 2.222.647 2.77 1.44l-.982.574a2.218 2.218 0 0 0-1.788-.928c-1.364 0-2.378 1.043-2.378 2.514 0 1.45 1.014 2.514 2.378 2.514.703 0 1.323-.323 1.633-.626v-1.074h-2.067v-1.075h3.266v2.598a3.71 3.71 0 0 1-2.832 1.273c-2.006 0-3.62-1.429-3.62-3.61zm7.947 3.475v-6.96h4.724v1.075h-3.515v1.794h3.443v1.075h-3.443v1.94h3.515v1.076h-4.724zm8.071 0V9.213h-2.088V8.137h5.386v1.076h-2.088v5.885h-1.21zm7.502-6.96h1.209v6.96h-1.21v-6.96zm4.578 6.96V9.213h-2.088V8.137h5.385v1.076h-2.088v5.885h-1.21zm7.201-3.475c0-2.077 1.457-3.6 3.526-3.6 2.057 0 3.525 1.523 3.525 3.6 0 2.076-1.468 3.6-3.525 3.6-2.069 0-3.526-1.524-3.526-3.6zm5.81 0c0-1.44-.9-2.514-2.284-2.514-1.396 0-2.285 1.074-2.285 2.514 0 1.429.889 2.514 2.285 2.514 1.385 0 2.284-1.085 2.284-2.514zm7.46 3.475L81.68 10.12v4.978h-1.21v-6.96h1.241l3.525 4.82v-4.82h1.21v6.96h-1.168z"/>
    </g>
</svg>
