<svg xmlns="http://www.w3.org/2000/svg" xmlns:xlink="http://www.w3.org/1999/xlink" width="165" height="64" viewBox="0 0 165 64">
  <defs>
    <polygon id="logo-white-a" points=".015 .042 17.003 .042 17.003 22.215 .015 22.215"/>
    <polygon id="logo-white-c" points="0 63.971 163.992 63.971 163.992 0 0 0"/>
    <polygon id="logo-white-e" points="0 63.971 163.992 63.971 163.992 0 0 0"/>
    <polygon id="logo-white-g" points="0 63.971 163.992 63.971 163.992 0 0 0"/>
    <polygon id="logo-white-i" points="0 63.971 163.992 63.971 163.992 0 0 0"/>
    <polygon id="logo-white-k" points="0 63.971 163.992 63.971 163.992 0 0 0"/>
    <polygon id="logo-white-m" points="0 63.971 163.992 63.971 163.992 0 0 0"/>
    <polygon id="logo-white-o" points="0 63.971 163.992 63.971 163.992 0 0 0"/>
  </defs>
  <g fill="none" fill-rule="evenodd" transform="translate(1)">
    <path fill="#FFF" fill-rule="nonzero" d="M18.8541234,33.8799743 C18.977105,34.48768 19.0933115,35.0953857 19.2026694,35.7030179 C19.3052523,36.3107237 19.3940641,36.9219605 19.4692523,37.5363605 C19.5512891,38.1439926 19.6230897,38.7551559 19.6845805,39.3696294 C19.7392226,39.9841766 19.7837022,40.6021076 19.8178719,41.2234225 C19.9681746,42.650034 20.0707574,44.0847375 20.1254732,45.5249582 C20.1801153,46.9652524 20.1801153,48.4067972 20.1254732,49.8470179 C20.0776061,51.2873122 19.9784108,52.7253995 19.8281081,54.1588524 C19.6778055,55.5854639 19.4760273,57.0099421 19.2232154,58.4297122 C19.1411786,58.8735191 19.0591418,59.3139421 18.977105,59.7509076 C18.8882931,60.1878731 18.7960201,60.6248386 18.7002859,61.0618041 C18.5977767,61.4988432 18.4952675,61.9324248 18.3927583,62.3626225 C18.2834004,62.7995145 18.1705814,63.2331697 18.0543749,63.6632938 L3.86458231,63.6632938 C3.74837575,63.2331697 3.63555671,62.7995145 3.52619883,62.3626225 C3.41684095,61.9324248 3.31433175,61.4988432 3.21867122,61.0618041 C3.12293705,60.6248386 3.03066403,60.1878731 2.94185218,59.7509076 C2.85296668,59.3139421 2.77092986,58.8735191 2.69574172,58.4297122 C2.44292986,57.0099421 2.24115168,55.5854639 2.09084903,54.1588524 C1.94054639,52.7253995 1.84135106,51.2873122 1.79348397,49.8470179 C1.73884185,48.4067972 1.73884185,46.9652524 1.79348397,45.5249582 C1.84135106,44.0847375 1.9439339,42.650034 2.10108523,41.2234225 C2.13525496,40.6021076 2.17973453,39.9841766 2.23437665,39.3696294 C2.29586744,38.7551559 2.36428056,38.1439926 2.4394687,37.5363605 C2.52143188,36.9219605 2.61377854,36.3107237 2.71628774,35.7030179 C2.81879695,35.0953857 2.9350035,34.48768 3.06483377,33.8799743 C3.37913642,32.3717811 3.76568154,30.8750639 4.22343817,29.3941628 C4.68119479,27.9199559 5.20456614,26.4676708 5.79207939,25.04128 C6.38644131,23.6081214 7.04671253,22.2071099 7.77090471,20.8421444 C8.49502326,19.4772524 9.28527203,18.1480386 10.1392945,16.8581076 C10.180092,16.7832938 10.2317884,16.7178961 10.2930583,16.6634593 C10.3474795,16.6023283 10.4130206,16.5506133 10.4878405,16.5098593 C10.5558854,16.4690317 10.6317363,16.4380616 10.7134049,16.4176846 C10.7950736,16.3973076 10.8778468,16.3869352 10.9595154,16.3869352 C11.041184,16.3869352 11.1238836,16.3973076 11.2055522,16.4176846 C11.2872208,16.4380616 11.3630718,16.4690317 11.4311167,16.5098593 C11.5059366,16.5506133 11.5714777,16.6023283 11.6258989,16.6634593 C11.6871687,16.7178961 11.7388652,16.7832938 11.7797363,16.8581076 C12.6268365,18.1480386 13.4136241,19.4772524 14.1378163,20.8421444 C14.8620084,22.2071099 15.5222797,23.6081214 16.1166416,25.04128 C16.7110035,26.4676708 17.237836,27.9199559 17.695519,29.3941628 C18.1532756,30.8750639 18.5398207,32.3717811 18.8541234,33.8799743"/>
    <polygon fill="#FFF" fill-rule="nonzero" points="24.924 63.663 30.132 5.418 31.075 10.59 32.019 0 38.468 63.663"/>
    <g transform="translate(0 33.368)">
      <path fill="#FFF" fill-rule="nonzero" d="M29.73225,15.1474023 C29.7661988,13.3397333 29.4672873,11.5379494 28.8505383,9.83187126 C28.2405643,8.13256092 27.3196016,6.55646897 26.1335289,5.18208736 C24.9543048,3.81447356 23.5328733,2.66887356 21.9401512,1.80229885 C20.3475028,0.942491954 18.609854,0.380101149 16.8138073,0.14308046 C15.0177606,-0.0939402299 13.1932145,-0.000147126437 11.4311167,0.419604598 C9.66894513,0.832588506 7.99735285,1.56858851 6.49955492,2.59089655 C5.00168334,3.60643678 3.7019815,4.88746667 2.66503314,6.37013333 C1.63485981,7.85956782 0.880695465,9.52246437 0.440170992,11.2759908 C0.00642155366,13.0294437 -0.10485101,14.852046 0.112097351,16.6529471 C0.32897207,18.4470069 0.871122048,20.1863356 1.71152079,21.7841287 C2.55869457,23.3886897 3.69159802,24.8224368 5.05389529,26.0140138 C6.41619255,27.2122851 7.98350822,28.1496276 9.67785577,28.7792552 C11.372277,29.4088828 13.1724476,29.7248368 14.9888194,29.7113011 C16.7984162,29.6977655 18.5916645,29.3540782 20.279237,28.6973793 C21.9668095,28.0338391 23.5202806,27.0722207 24.8622527,25.8603402 C26.2041512,24.6416184 27.3092918,23.1905839 28.1225904,21.5792552 L28.1225904,18.7320644 C27.6417839,20.3961379 26.8446865,21.9574437 25.7747467,23.3306483 C24.7115819,24.6970851 23.3957525,25.8549701 21.8992065,26.7411862 C20.4093618,27.6205609 18.7594202,28.2151724 17.0393717,28.4925057 C15.3260982,28.7630713 13.5751939,28.7109149 11.8822455,28.3389057 C10.1825221,27.9600552 8.57080054,27.2681195 7.13522982,26.3007632 C5.69281042,25.3266391 4.44664607,24.0887908 3.46470804,22.6546759 C2.48277,21.2273287 1.77963934,19.6243126 1.39368334,17.9331678 C1.0076537,16.242023 0.944984643,14.4895264 1.20913731,12.7713103 C1.47321634,11.0598621 2.06146601,9.40814713 2.94185218,7.90642759 C3.81538967,6.41147586 4.96758725,5.09005977 6.33548128,4.01449195 C7.69660027,2.94569195 9.25257512,2.1389977 10.918497,1.6384 C12.5843452,1.14457011 14.3283273,0.967282759 16.0550771,1.11610115 C17.7886757,1.26491954 19.4769846,1.74131494 21.0276573,2.51924598 C22.5851786,3.2904092 23.9810565,4.35097011 25.1390718,5.64296092 C26.3037884,6.93502529 27.2123057,8.43372874 27.8149891,10.0571954 C28.4176726,11.6875034 28.7101036,13.4156506 28.6762285,15.1474023 L29.73225,15.1474023 Z"/>
      <path stroke="#E6007E" stroke-linecap="round" stroke-linejoin="round" stroke-width=".821" d="M29.73225,15.1474023 C29.7661988,13.3397333 29.4672873,11.5379494 28.8505383,9.83187126 C28.2405643,8.13256092 27.3196016,6.55646897 26.1335289,5.18208736 C24.9543048,3.81447356 23.5328733,2.66887356 21.9401512,1.80229885 C20.3475028,0.942491954 18.609854,0.380101149 16.8138073,0.14308046 C15.0177606,-0.0939402299 13.1932145,-0.000147126437 11.4311167,0.419604598 C9.66894513,0.832588506 7.99735285,1.56858851 6.49955492,2.59089655 C5.00168334,3.60643678 3.7019815,4.88746667 2.66503314,6.37013333 C1.63485981,7.85956782 0.880695465,9.52246437 0.440170992,11.2759908 C0.00642155366,13.0294437 -0.10485101,14.852046 0.112097351,16.6529471 C0.32897207,18.4470069 0.871122048,20.1863356 1.71152079,21.7841287 C2.55869457,23.3886897 3.69159802,24.8224368 5.05389529,26.0140138 C6.41619255,27.2122851 7.98350822,28.1496276 9.67785577,28.7792552 C11.372277,29.4088828 13.1724476,29.7248368 14.9888194,29.7113011 C16.7984162,29.6977655 18.5916645,29.3540782 20.279237,28.6973793 C21.9668095,28.0338391 23.5202806,27.0722207 24.8622527,25.8603402 C26.2041512,24.6416184 27.3092918,23.1905839 28.1225904,21.5792552 L28.1225904,18.7320644 C27.6417839,20.3961379 26.8446865,21.9574437 25.7747467,23.3306483 C24.7115819,24.6970851 23.3957525,25.8549701 21.8992065,26.7411862 C20.4093618,27.6205609 18.7594202,28.2151724 17.0393717,28.4925057 C15.3260982,28.7630713 13.5751939,28.7109149 11.8822455,28.3389057 C10.1825221,27.9600552 8.57080054,27.2681195 7.13522982,26.3007632 C5.69281042,25.3266391 4.44664607,24.0887908 3.46470804,22.6546759 C2.48277,21.2273287 1.77963934,19.6243126 1.39368334,17.9331678 C1.0076537,16.242023 0.944984643,14.4895264 1.20913731,12.7713103 C1.47321634,11.0598621 2.06146601,9.40814713 2.94185218,7.90642759 C3.81538967,6.41147586 4.96758725,5.09005977 6.33548128,4.01449195 C7.69660027,2.94569195 9.25257512,2.1389977 10.918497,1.6384 C12.5843452,1.14457011 14.3283273,0.967282759 16.0550771,1.11610115 C17.7886757,1.26491954 19.4769846,1.74131494 21.0276573,2.51924598 C22.5851786,3.2904092 23.9810565,4.35097011 25.1390718,5.64296092 C26.3037884,6.93502529 27.2123057,8.43372874 27.8149891,10.0571954 C28.4176726,11.6875034 28.7101036,13.4156506 28.6762285,15.1474023 L29.73225,15.1474023 Z"/>
    </g>
    <path fill="#E6007E" fill-rule="nonzero" d="M13.5841782,47.7064533 C13.6518549,47.5375522 13.7529649,47.38432 13.8815432,47.2558051 C14.010048,47.1274372 14.1635172,47.0229039 14.3326721,46.9486051 C14.5019007,46.8810005 14.6829119,46.8461315 14.8657642,46.8461315 C15.0486164,46.8461315 15.2296277,46.8810005 15.3989299,46.9486051 C15.5680848,47.0229039 15.7214804,47.1274372 15.8500587,47.2558051 C15.9785634,47.38432 16.0797471,47.5375522 16.1473502,47.7064533 C16.2151005,47.8688074 16.249933,48.0462418 16.249933,48.2288257 C16.249933,48.4114097 16.2151005,48.592228 16.1473502,48.7613499 C16.0797471,48.9303246 15.9785634,49.0836303 15.8500587,49.2119982 C15.7214804,49.3404395 15.5680848,49.4414418 15.3989299,49.5090464 C15.2296277,49.5834189 15.0486164,49.6217453 14.8657642,49.6217453 C14.6829119,49.6217453 14.5019007,49.5834189 14.3326721,49.5090464 C14.1633699,49.4413683 14.0101952,49.3405131 13.8815432,49.2119982 C13.7529649,49.0836303 13.6518549,48.9303246 13.5841782,48.7613499 C13.5165015,48.592228 13.481669,48.4114097 13.481669,48.2288257 C13.481669,48.0462418 13.5165015,47.8688074 13.5841782,47.7064533 Z"/>
    <path fill="#FFF" fill-rule="nonzero" d="M27.2511443,37.8231467 L27.2511443,63.6633306 L19.2232449,63.6633306 L19.2232449,37.8231467 L19.0386252,37.8231467 L19.0386252,36.542926 L18.8541529,36.542926 L18.8541529,28.9742271 L19.4692817,28.9742271 L19.4692817,28.3494547 L18.8130608,27.970457 L19.6948462,27.970457 C19.8247501,27.7109995 19.9511928,27.4481582 20.0741744,27.1818593 C20.2040783,26.915634 20.3271335,26.6492616 20.4433401,26.3829628 C20.5663217,26.1166639 20.6859894,25.8503651 20.802196,25.5841398 C20.9182552,25.3178409 21.0311479,25.0481582 21.1404322,24.7750179 L21.1609782,24.7750179 L21.1609782,24.5394685 L20.3100487,24.0376202 L21.1609782,24.0376202 L21.1609782,22.2863007 L20.966196,22.2863007 L20.966196,21.7434777 C21.1917604,21.0948708 21.40024,20.4426593 21.591561,19.787211 C21.7898044,19.1317628 21.9709629,18.4727834 22.1349629,17.8104938 C22.2990366,17.1482777 22.452874,16.482457 22.5964016,15.8134731 C22.7330069,15.1443421 22.8560621,14.4750639 22.9654937,13.80608 L23.2320765,13.8265306 L23.4986594,13.80608 C23.6079436,14.4750639 23.73446,15.1443421 23.877914,15.8134731 C24.0146665,16.482457 24.1650428,17.1482777 24.3290428,17.8104938 C24.4999652,18.4727834 24.6811237,19.1317628 24.8724447,19.787211 C25.0706881,20.4426593 25.2792413,21.0948708 25.4978834,21.7434777 L25.4978834,22.2863007 L25.3031012,22.2863007 L25.3031012,24.0376202 L26.1541044,24.0376202 L25.3031012,24.5394685 L25.3031012,24.7750179 L25.3338834,24.7750179 C25.4431677,25.0481582 25.5559867,25.3178409 25.6721933,25.5841398 C25.7883998,25.8503651 25.9046064,26.1166639 26.0208129,26.3829628 C26.1438682,26.6492616 26.2668498,26.915634 26.389905,27.1818593 C26.5129602,27.4481582 26.6393293,27.7109995 26.7692332,27.970457 L27.6510186,27.970457 L26.9947977,28.3494547 L26.9947977,28.9742271 L27.6100002,28.9742271 L27.6100002,36.542926 L27.4253805,36.542926 L27.4253805,37.8231467 L27.2511443,37.8231467"/>
    <path fill="#FFF" fill-rule="nonzero" d="M53.3956679,50.5844303 L53.0163396,50.5844303 L53.0163396,57.6103798 L53.3956679,57.6103798 L53.3956679,63.6633085 L27.7432548,63.6633085 L27.7432548,57.6103798 L28.1226567,57.6103798 L28.1226567,50.5844303 L27.7432548,50.5844303 L27.7432548,49.2735338 L26.8102148,48.515612 L30.5833194,48.515612 L30.5833194,43.0669315 L29.0966414,42.2271338 L30.5833194,42.2271338 L30.5833194,41.4897361 L30.7575556,41.4897361 L30.7267734,40.8035384 C30.706301,40.2034097 30.7234595,39.601074 30.778028,39.0009453 C30.8326701,38.4008166 30.9286252,37.8053223 31.0652305,37.2188763 C31.1948399,36.6391982 31.3661304,36.064228 31.5777766,35.4982326 C31.7894227,34.9390051 32.0360487,34.391474 32.3159607,33.8595384 C32.5954308,33.3352533 32.9288066,32.8409085 33.3104914,32.384743 C33.6921762,31.9216625 34.1183405,31.5028671 34.5818412,31.1351982 C35.0453419,30.7606878 35.5470626,30.4345821 36.0788291,30.162251 C36.6104483,29.8898464 37.1671057,29.6701867 37.7396697,29.5067292 L37.9140532,29.4555292 L37.9140532,29.0663798 L37.4423783,29.0663798 L37.4423783,28.5133315 L38.6213814,28.5133315 L38.6213814,22.470628 L39.3186207,22.470628 L39.3186207,19.3980395 L40.1593141,17.4418464 C40.0508399,17.3944717 39.9501717,17.3285591 39.8620963,17.2472717 C39.7737999,17.1659844 39.7009683,17.0688809 39.6466944,16.9605223 C39.5924941,16.8588579 39.5577352,16.7479246 39.5441852,16.6327982 C39.5237864,16.5108303 39.5273212,16.3895246 39.5544214,16.2743246 C39.5747465,16.1591246 39.6165013,16.0481177 39.6774766,15.9466005 C39.7385256,15.8449361 39.8182795,15.7548211 39.9132772,15.680228 C40.0082013,15.6057821 40.1123307,15.5468579 40.2209521,15.5061775 C40.3361277,15.465497 40.4541753,15.4447522 40.5694245,15.4447522 C40.6915224,15.4447522 40.8094964,15.465497 40.9180442,15.5061775 C41.033367,15.5468579 41.1374227,15.6057821 41.2256454,15.680228 C41.3205696,15.7548211 41.4003971,15.8449361 41.4614461,15.9466005 C41.522495,16.0481177 41.5641026,16.1591246 41.5845013,16.2743246 C41.6116014,16.3895246 41.6150626,16.5108303 41.5947375,16.6327982 C41.5811874,16.7479246 41.5465022,16.8588579 41.4921546,16.9605223 C41.4379544,17.0688809 41.3650491,17.1659844 41.2769737,17.2472717 C41.1886773,17.3285591 41.0880828,17.3944717 40.979535,17.4418464 L41.8203019,19.3980395 L41.8203019,22.470628 L42.5277038,22.470628 L42.5277038,28.5133315 L43.6965444,28.5133315 L43.6965444,29.0663798 L43.2249432,29.0663798 L43.2249432,29.4555292 L43.4095628,29.5067292 C43.9820532,29.6701867 44.5353967,29.8898464 45.0602409,30.162251 C45.5918601,30.4345821 46.0935071,30.7606878 46.5570815,31.1351982 C47.0206558,31.5028671 47.4466728,31.9216625 47.8284313,32.384743 C48.210116,32.8409085 48.5434182,33.3352533 48.8228884,33.8595384 C49.1028004,34.391474 49.3495736,34.9390051 49.5612198,35.4982326 C49.7727186,36.064228 49.9474703,36.6391982 50.084002,37.2188763 C50.213685,37.8053223 50.3061789,38.4008166 50.360821,39.0009453 C50.4154631,39.601074 50.4326216,40.2034097 50.4120756,40.8035384 L50.381367,41.4897361 L50.5556769,41.4897361 L50.5556769,42.2271338 L52.0422813,42.2271338 L50.5556769,43.0669315 L50.5556769,48.515612 L54.3286342,48.515612 L53.3956679,49.2735338 L53.3956679,50.5844303"/>
    <polygon fill="#FFF" fill-rule="nonzero" points="108.73 63.602 104.865 63.602 96.078 49.99 96.078 63.602 91.741 63.602 91.741 41.428 95.606 41.428 104.403 55.009 104.403 41.428 108.73 41.428"/>
    <polygon fill="#FFF" fill-rule="nonzero" points="72.702 63.602 58.296 63.602 58.296 41.428 62.633 41.428 62.633 59.741 72.702 59.741"/>
    <g transform="translate(146.989 41.387)">
      <mask id="logo-white-b" fill="#fff">
        <use xlink:href="#logo-white-a"/>
      </mask>
      <polygon fill="#FFF" fill-rule="nonzero" points="17.003 22.215 13.138 22.215 4.341 8.604 4.341 22.215 .015 22.215 .015 .042 3.88 .042 12.666 13.622 12.666 .042 17.003 .042" mask="url(#logo-white-b)"/>
    </g>
    <path fill="#FFF" fill-rule="nonzero" d="M139.805898 58.4399595C139.081338 59.4299733 138.073257 59.9249802 136.781361 59.9249802 135.619296 59.9249802 134.683015 59.5324469 133.972079 58.7472331 133.432064 58.125771 133.10053 57.1289894 132.977548 55.7565205 132.936603 55.3810538 132.915983 54.3022492 132.915983 52.5201067 132.915983 50.7312699 132.936603 49.6524653 132.977548 49.2837664 133.10053 47.911371 133.432064 46.9144423 133.972079 46.2931274 134.683015 45.5009986 135.619296 45.1050814 136.781361 45.1050814 137.922881 45.1050814 138.848998 45.5009986 139.559788 46.2931274 140.120348 46.9144423 140.462045 47.911371 140.585174 49.2837664 140.626193 49.7344147 140.646591 50.8132193 140.646591 52.5201067 140.646591 55.6950952 140.366385 57.6684285 139.805898 58.4399595M144.696441 47.5016975C144.429932 45.9654032 143.787335 44.6884929 142.768944 43.6711871 141.148975 42.0529434 139.153212 41.2438952 136.781361 41.2438952 134.388964 41.2438952 132.382891 42.0529434 130.762922 43.6711871 129.765004 44.6681159 129.122554 45.9448791 128.835425 47.5016975 128.664576 48.4166032 128.579152 50.0893572 128.579152 52.5201067 128.579152 54.9508561 128.664576 56.6202998 128.835425 57.5283641 129.122554 59.0851825 129.765004 60.3620193 130.762922 61.3588745 132.382891 62.983886 134.388964 63.7963917 136.781361 63.7963917 139.153212 63.7963917 141.148975 62.983886 142.768944 61.3588745 143.787335 60.3414952 144.429932 59.064732 144.696441 57.5283641 144.88791 56.5997756 144.98357 54.9304055 144.98357 52.5201067 144.98357 50.1099549 144.88791 48.4370538 144.696441 47.5016975M122.878594 56.2891697C122.755539 57.204149 122.495805 57.8971145 122.099392 58.3682133 121.354359 59.2831926 120.274404 59.7406087 118.859527 59.7406087L115.588879 59.7406087 115.588879 45.2894087 118.859527 45.2894087C120.274404 45.2894087 121.354359 45.7468984 122.099392 46.6618041 122.495805 47.1397444 122.755539 47.8054915 122.878594 48.658972 122.981104 49.3827605 123.032432 50.6390731 123.032432 52.4279834 123.032432 54.230503 122.981104 55.5175651 122.878594 56.2891697M127.184791 47.6552754C126.911359 46.0165811 126.22443 44.6475697 125.123929 43.5483145 123.708978 42.1349444 121.75416 41.4282225 119.259401 41.4282225L111.251974 41.4282225 111.251974 63.6017949 119.259401 63.6017949C121.75416 63.6017949 123.708978 62.8985306 125.123929 61.4920018 126.22443 60.3859053 126.911359 58.9827605 127.184791 57.2825674 127.307773 56.5178777 127.369263 54.899634 127.369263 52.4279834 127.369263 49.997234 127.307773 48.4063559 127.184791 47.6552754M84.55379 58.6140984C83.822381 59.6041122 82.8142265 60.0991191 81.529253 60.0991191 80.3604124 60.0991191 79.4239849 59.7065122 78.7199705 58.9212984 78.1800298 58.2999099 77.848495 57.3031283 77.7253661 55.9306593 77.684495 55.5551926 77.6638753 54.476388 77.6638753 52.6942455 77.6638753 50.9054087 77.684495 49.8266041 77.7253661 49.4578317 77.848495 48.0854363 78.1800298 47.0885076 78.7199705 46.4672662 79.4239849 45.6751375 80.3604124 45.2792202 81.529253 45.2792202 82.6706989 45.2792202 83.5935026 45.6751375 84.297517 46.4672662 84.8580038 47.0885076 85.2030886 48.0854363 85.3329925 49.4578317 85.374011 49.90848 85.394557 50.9872846 85.394557 52.6942455 85.394557 55.869234 85.1142031 57.8424938 84.55379 58.6140984M89.4443334 47.6757628C89.1778242 46.1395421 88.5352269 44.8626317 87.5167626 43.8452524 85.8900918 42.2270823 83.8941816 41.4179605 81.529253 41.4179605 79.136856 41.4179605 77.1307833 42.2270823 75.5108138 43.8452524 74.5128956 44.8421811 73.8669845 46.1190179 73.5730806 47.6757628 73.4090806 48.5906685 73.3270437 50.2634961 73.3270437 52.6942455 73.3270437 55.1249214 73.4090806 56.7944386 73.5730806 57.702503 73.8669845 59.2593214 74.5128956 60.5361582 75.5108138 61.5330133 77.1307833 63.1580248 79.136856 63.970457 81.529253 63.970457 83.8941816 63.970457 85.8900918 63.1580248 87.5167626 61.5330133 88.5352269 60.515634 89.1778242 59.2387237 89.4443334 57.702503 89.628953 56.7671467 89.721226 55.0976294 89.721226 52.6942455 89.721226 50.2840202 89.628953 48.6111191 89.4443334 47.6757628"/>
    <mask id="logo-white-d" fill="#fff">
      <use xlink:href="#logo-white-c"/>
    </mask>
    <polygon fill="#FFF" fill-rule="nonzero" points="141.149 38.714 142.841 38.714 142.841 16.541 141.149 16.541" mask="url(#logo-white-d)"/>
    <mask id="logo-white-f" fill="#fff">
      <use xlink:href="#logo-white-e"/>
    </mask>
    <polygon fill="#FFF" fill-rule="nonzero" points="163.992 38.714 162.311 38.714 149.495 19.429 149.495 38.714 147.813 38.714 147.813 16.541 149.495 16.541 162.311 35.744 162.311 16.541 163.992 16.541" mask="url(#logo-white-f)"/>
    <mask id="logo-white-h" fill="#fff">
      <use xlink:href="#logo-white-g"/>
    </mask>
    <polygon fill="#FFF" fill-rule="nonzero" points="93.381 38.714 98.846 38.714 98.846 16.541 93.381 16.541" mask="url(#logo-white-h)"/>
    <mask id="logo-white-j" fill="#fff">
      <use xlink:href="#logo-white-i"/>
    </mask>
    <polygon fill="#FFF" fill-rule="nonzero" points="135.09 38.714 119.987 38.714 119.987 16.541 135.09 16.541 135.09 21.385 125.452 21.385 125.452 25.103 133.695 25.103 133.695 29.968 125.452 29.968 125.452 33.86 135.09 33.86" mask="url(#logo-white-j)"/>
    <mask id="logo-white-l" fill="#fff">
      <use xlink:href="#logo-white-k"/>
    </mask>
    <path fill="#FFF" fill-rule="nonzero" d="M68.9285225,24.7750179 C68.7439765,25.1164248 68.4706186,25.3895651 68.1083016,25.5943651 C67.7529069,25.7992386 67.3359477,25.9015651 66.8574978,25.9015651 L63.7611601,25.9015651 L63.7611601,21.4157536 L66.8574978,21.4157536 C67.3359477,21.4157536 67.7529069,21.5214639 68.1083016,21.7331789 C68.4706186,21.9380524 68.7439765,22.214503 68.9285225,22.5628248 C69.1199908,22.9041582 69.2156514,23.272857 69.2156514,23.6689214 C69.2156514,24.0649857 69.1199908,24.433611 68.9285225,24.7750179 M73.7883573,20.1559834 C73.1937008,19.0702639 72.3291476,18.1963329 71.1944767,17.5339697 C70.0598058,16.87168 68.6927955,16.540572 67.0932984,16.540572 L58.2964327,16.540572 L58.2964327,38.7141444 L63.7611601,38.7141444 L63.7611601,30.8074961 L67.0932984,30.8074961 C68.6927955,30.8074961 70.0598058,30.472857 71.1944767,29.803726 C72.3291476,29.1346685 73.1937008,28.25728 73.7883573,27.1715605 C74.3830137,26.0859145 74.6803788,24.9183926 74.6803788,23.6689214 C74.6803788,22.4126087 74.3830137,21.2416294 73.7883573,20.1559834" mask="url(#logo-white-l)"/>
    <mask id="logo-white-n" fill="#fff">
      <use xlink:href="#logo-white-m"/>
    </mask>
    <path fill="#FFF" fill-rule="nonzero" d="M86.1326969,24.7750179 C85.9481509,25.1164248 85.6747194,25.3895651 85.312476,25.5943651 C84.9502326,25.7992386 84.5298123,25.9015651 84.0513624,25.9015651 L80.9653345,25.9015651 L80.9653345,21.4157536 L84.0513624,21.4157536 C84.5298123,21.4157536 84.9502326,21.5214639 85.312476,21.7331789 C85.6747194,21.9380524 85.9481509,22.214503 86.1326969,22.5628248 C86.3241652,22.9041582 86.4197521,23.272857 86.4197521,23.6689214 C86.4197521,24.0649857 86.3241652,24.433611 86.1326969,24.7750179 Z M88.2550498,29.4657766 C89.2598168,28.9673122 90.1142075,28.2230731 90.8182218,27.2329857 C91.5290849,26.2498869 91.8844796,25.0617674 91.8844796,23.6689214 C91.8844796,22.4126087 91.5871881,21.2416294 90.9925317,20.1559834 C90.3978752,19.0702639 89.5332483,18.1963329 88.3986511,17.5339697 C87.2571316,16.87168 85.8900476,16.540572 84.2974728,16.540572 L75.5006071,16.540572 L75.5006071,38.7141444 L80.9653345,38.7141444 L80.9653345,30.4490225 L82.8108684,30.4490225 L86.7375896,38.7141444 L93.0533938,38.7141444 L88.2550498,29.4657766 Z" mask="url(#logo-white-n)"/>
    <mask id="logo-white-p" fill="#fff">
      <use xlink:href="#logo-white-o"/>
    </mask>
    <path fill="#FFF" fill-rule="nonzero" d="M113.138408,30.5001637 C113.097463,31.12832 113.042748,31.5721269 112.974408,31.8316579 C112.912917,32.0910418 112.796711,32.3505729 112.625789,32.6101039 C112.065375,33.4429867 111.190512,33.8595016 110.001126,33.8595016 L107.601954,33.8595016 L107.601954,21.3850189 L110.001126,21.3850189 C111.190512,21.3850189 112.065375,21.8014602 112.625789,22.6344166 C112.858202,22.9689821 113.011966,23.4300028 113.087227,24.0171108 C113.162342,24.5975246 113.199973,25.7992533 113.199973,27.6222234 C113.199973,28.9126694 113.1795,29.8720074 113.138408,30.5001637 M118.521246,23.0748395 C118.425512,22.3169913 118.21011,21.5693683 117.875188,20.831897 C117.540265,20.1013407 117.031107,19.3946189 116.347565,18.7118051 C114.898518,17.2643016 112.906142,16.5405867 110.370218,16.5405867 L102.127064,16.5405867 L102.127064,38.7141591 L110.370218,38.7141591 C112.906142,38.7141591 114.898518,37.9869867 116.347565,36.5326418 C117.031107,35.8566694 117.540265,35.1499476 117.875188,34.4126234 C118.21011,33.6819936 118.425512,32.937828 118.521246,32.1798326 C118.616907,31.4219108 118.6647,30.5070786 118.6647,29.4350418 L118.6647,25.8196303 C118.6647,24.7408257 118.616907,23.82592 118.521246,23.0748395" mask="url(#logo-white-p)"/>
  </g>
</svg>
