<svg xmlns="http://www.w3.org/2000/svg" width="164" height="61" fill="none" viewBox="0 0 164 61">
    <path fill="#fff" d="M65.352 29.21h-3.278v7.815h-5.348V15.136h8.588c4.821 0 7.42 3.452 7.42 7.018.038 3.604-2.561 7.056-7.382 7.056zm-.227-9.256h-3.013v4.438h3.014c1.468 0 2.335-1.062 2.335-2.2-.038-1.138-.904-2.238-2.335-2.238zM85.013 37.025l-3.842-8.156h-1.808v8.156h-5.349V15.136h8.588c4.822 0 7.42 3.452 7.42 7.018 0 2.997-1.845 4.856-3.54 5.728l4.708 9.143h-6.177zm-2.599-17.071h-3.013v4.438h3.013c1.469 0 2.335-1.062 2.335-2.2-.037-1.138-.866-2.238-2.335-2.238zM92.094 37.025V15.136h5.349v21.889h-5.349zM113.903 34.862c-1.506 1.518-3.615 2.163-5.875 2.163h-8.061V15.136h8.061c2.26 0 4.369.645 5.875 2.163 2.524 2.541 2.26 5.348 2.26 8.8 0 3.453.302 6.222-2.26 8.763zm-3.653-13.694c-.49-.72-1.205-1.214-2.561-1.214h-2.336v12.29h2.336c1.356 0 2.071-.492 2.561-1.213.414-.607.565-1.214.565-4.932.038-3.717-.113-4.324-.565-4.931zM118.047 37.025V15.136h14.765v4.78h-9.416v3.642h8.06v4.78h-8.06v3.831h9.416v4.78h-14.765v.076zM141.626 37.025V15.136h2.335v21.889h-2.335zM161.778 37.025l-11.526-17.526v17.526h-2.336V15.136h2.185l11.564 17.488V15.136H164v21.889h-2.222zM57.103 60.81V38.922h4.256v18.057h9.83v3.793H57.104v.038zM85.465 58.572c-1.507 1.555-3.39 2.39-5.876 2.39s-4.37-.873-5.876-2.39c-2.184-2.2-2.147-4.932-2.147-8.725 0-3.794-.075-6.525 2.147-8.725 1.507-1.518 3.428-2.39 5.876-2.39 2.448 0 4.332.872 5.876 2.39 2.185 2.2 2.185 4.931 2.185 8.725-.038 3.793 0 6.525-2.185 8.725zm-3.164-14.87c-.603-.721-1.544-1.177-2.712-1.177-1.168 0-2.147.456-2.75 1.176-.828.91-1.054 1.935-1.054 6.146 0 4.21.226 5.235 1.055 6.145.602.721 1.581 1.176 2.75 1.176 1.167 0 2.108-.455 2.711-1.176.829-.91 1.055-1.934 1.055-6.145 0-4.211-.226-5.197-1.055-6.146zM103.281 60.81l-8.588-13.429v13.43h-4.256V38.92h3.767l8.588 13.392V38.922h4.256V60.81h-3.767zM124.187 58.724c-1.432 1.441-3.466 2.086-5.726 2.086h-7.834V38.922h7.834c2.26 0 4.294.645 5.726 2.086 2.448 2.466 2.184 5.463 2.184 8.763s.226 6.487-2.184 8.953zm-2.976-14.643c-.716-.873-1.695-1.366-3.164-1.366h-3.202V56.98h3.202c1.469 0 2.448-.455 3.164-1.366.791-.986.904-2.541.904-5.88 0-3.3-.113-4.666-.904-5.652zM142.304 58.572c-1.507 1.555-3.39 2.39-5.876 2.39s-4.369-.873-5.876-2.39c-2.185-2.2-2.147-4.932-2.147-8.725 0-3.794-.075-6.525 2.147-8.725 1.507-1.518 3.428-2.39 5.876-2.39 2.448 0 4.332.872 5.876 2.39 2.185 2.2 2.185 4.931 2.185 8.725 0 3.793.037 6.525-2.185 8.725zm-3.126-14.87c-.603-.721-1.545-1.177-2.712-1.177-1.168 0-2.147.456-2.75 1.176-.829.91-1.055 1.935-1.055 6.146 0 4.21.226 5.235 1.055 6.145.603.721 1.582 1.176 2.75 1.176 1.167 0 2.109-.455 2.712-1.176.828-.91 1.054-1.934 1.054-6.145 0-4.211-.226-5.197-1.054-6.146zM160.12 60.81l-8.588-13.429v13.43h-4.256V38.92h3.766l8.588 13.392V38.922h4.256V60.81h-3.766zM27.421 45.712c0-3.984-1.657-7.55-4.294-10.091l-.753 8.573v12.253c3.088-2.541 5.047-6.41 5.047-10.735z"/>
    <path fill="#fff" d="M32.054 41.69L27.911 0l-1.47 9.636L26.217 0l-2.938 34.066c3.315 2.77 5.424 6.98 5.424 11.646 0 5.083-2.486 9.597-6.29 12.329v2.845H32.77l-.716-19.195zM13.861 60.81C7.533 60.81 2.147 56.751 0 51.06l.452 4.705.866 5.083H15.82l.037-.227c-.64.113-1.318.19-1.996.19zM13.861 30.614c.716 0 1.432.038 2.11.152l-.565-2.732-1.017-3.907-.791-2.655-.98-2.656-.941-1.935-1.055-1.972-.753-1.252-.452-.72-.415-.266-.414-.076h-.301l-.226.114-.264.151-.264.342-1.092 1.669-1.092 2.048-.904 1.973-1.017 2.883-1.281 4.666-1.055 4.818-.753 5.007L0 40.363c2.11-5.69 7.533-9.75 13.861-9.75zM13.861 44.915c-.414 0-.753.342-.753.76 0 .416.34.758.753.758.415 0 .754-.342.754-.759s-.34-.759-.754-.759z"/>
    <path fill="#fff" d="M17.1 38.922l-.414-4.097-.452-2.732c-.753-.152-1.544-.227-2.373-.227-7.495 0-13.56 6.183-13.56 13.808s6.102 13.808 13.56 13.808c.754 0 1.507-.075 2.26-.19l.64-3.565.377-3.642.226-5.197v-4.173l-.263-3.793zm-3.239 8.421c-.866 0-1.582-.72-1.582-1.631 0-.91.716-1.631 1.582-1.631.867 0 1.582.72 1.582 1.631 0 .91-.715 1.631-1.582 1.631z"/>
    <path fill="#fff" d="M19.587 10.963l.226 1.821.226 1.176.527 2.2.452 1.252.527 1.252-.263.304v2.314h.263l-.301.227.226.949.301.72.226.494.226.455.377.645.339.493h.301l-.301.303v.645h.603l.037 7.132h-.188v1.517h-.15v26.024h-7.383V34.9h-.113v-1.555h-.189v-7.17h.641v-.607l-.34-.303.377-.038.377-.493.414-.683.34-.835.338-.91.151-.759-.264-.265h.264v-2.314l-.264-.304.528-1.29.452-1.176.49-2.238.527-2.997zM39.663 11.912l-.15.075c-.038 0-.038.038-.076.038H39.4l-.037.038-.113.076-.038.038c-.113.114-.188.304-.188.455 0 .076 0 .19.037.266v.038l.038.038c.038.076.075.152.15.19l.076.113v.19l-.15.38-.227 2.086-.188.38v.872h-.226l.038 2.427-.867.038v.456l.264.075v3.642l-.301.038v.304l.301-.038.038 1.252.188.227h-.15l-.264.038-.942.038v.303h.188l.151.19.075.19.038.265-.98.304-.903.569-.904.683-.829.796-.79.721-.754.949-.791 1.441-.415 1.1-.3 1.025-.19 1.175-.075 1.139.076.72-.188.076-.076 1.1-.414.038.037.19.151.038v.417l-.188-.038-.415.076.038.266h.264v.151h.113l.037.152h.151v5.804l-.866.038-2.298.038v.152l.15.151.302.038v.152l.15.076v1.063l.302.037.038 6.6-.188.039.037.645-.188.038v6.259H51.98v-6.26l-.188-.037.037-.645-.188-.038.038-6.6.301-.039V46.167l.15-.076v-.152l.302-.038.15-.151v-.152l-2.297-.038-.866-.038v-5.728h.15l.038-.152h.113v-.19h.264l.037-.265-.414-.076-.188.038v-.417l.15-.038.038-.19-.414-.038-.076-1.1-.188-.076.075-.72-.075-1.139-.188-1.176-.302-1.024-.414-1.1-.791-1.442-.753-.948-.791-.72-.829-.797-.904-.683-.904-.531-.942-.304.038-.265.038-.266.15-.19h.189v-.303l-.942-.038-.264-.038h-.15l.188-.227.038-1.252.301.038v-.304l-.301-.038v-3.642l.263-.075v-.342l-.866-.038.038-2.428h-.226v-.872l-.189-.38-.226-2.086-.15-.38v-.189l.075-.114c.075-.038.113-.114.15-.19l.038-.037v-.038c.038-.076.038-.152.038-.266 0-.19-.075-.341-.188-.455l-.038-.038-.113-.076-.038-.038h-.037c-.038 0-.038-.038-.076-.038l-.15-.076"/>
</svg>
